<svg xmlns="http://www.w3.org/2000/svg" xmlns:xlink="http://www.w3.org/1999/xlink" width="200" zoomAndPan="magnify" viewBox="0 0 150 149.999998" height="200" preserveAspectRatio="xMidYMid meet" version="1.0"><defs><clipPath id="6fcdbc2312"><path d="M 8 6.191406 L 142 6.191406 L 142 143.441406 L 8 143.441406 Z M 8 6.191406 " clip-rule="nonzero"/></clipPath></defs><path fill="#ff6d00" d="M 46.808594 104.359375 L 19.496094 104.359375 C 19.230469 104.359375 18.972656 104.308594 18.726562 104.207031 C 18.480469 104.101562 18.261719 103.957031 18.070312 103.769531 C 17.882812 103.578125 17.738281 103.359375 17.632812 103.113281 C 17.53125 102.867188 17.480469 102.609375 17.480469 102.34375 C 17.480469 102.074219 17.53125 101.816406 17.632812 101.570312 C 17.738281 101.324219 17.882812 101.105469 18.070312 100.917969 C 18.261719 100.726562 18.480469 100.582031 18.726562 100.480469 C 18.972656 100.375 19.230469 100.324219 19.496094 100.324219 L 46.808594 100.324219 C 47.078125 100.324219 47.335938 100.375 47.582031 100.480469 C 47.828125 100.582031 48.046875 100.726562 48.238281 100.917969 C 48.425781 101.105469 48.570312 101.324219 48.671875 101.570312 C 48.777344 101.816406 48.828125 102.074219 48.828125 102.34375 C 48.828125 102.609375 48.777344 102.867188 48.671875 103.113281 C 48.570312 103.359375 48.425781 103.578125 48.238281 103.769531 C 48.046875 103.957031 47.828125 104.101562 47.582031 104.207031 C 47.335938 104.308594 47.078125 104.359375 46.808594 104.359375 Z M 46.808594 104.359375 " fill-opacity="1" fill-rule="nonzero"/><path fill="#ff6d00" d="M 67.894531 78.496094 L 67.894531 82.917969 C 67.894531 84.210938 69.265625 85.386719 70.476562 86.144531 L 73.363281 87.257812 L 73.363281 73.949219 L 72.382812 73.949219 C 72.085938 73.949219 71.789062 73.980469 71.5 74.039062 C 71.207031 74.097656 70.925781 74.183594 70.652344 74.300781 C 70.378906 74.414062 70.117188 74.554688 69.871094 74.722656 C 69.628906 74.890625 69.398438 75.078125 69.191406 75.289062 C 68.984375 75.5 68.796875 75.730469 68.632812 75.980469 C 68.472656 76.226562 68.335938 76.488281 68.222656 76.765625 C 68.113281 77.039062 68.027344 77.324219 67.972656 77.613281 C 67.917969 77.90625 67.894531 78.199219 67.894531 78.496094 Z M 67.894531 78.496094 " fill-opacity="1" fill-rule="nonzero"/><path fill="#ff6d00" d="M 77.398438 106.214844 L 77.59375 106.214844 C 77.886719 106.214844 78.175781 106.183594 78.464844 106.125 C 78.753906 106.066406 79.035156 105.980469 79.304688 105.867188 C 79.578125 105.753906 79.835938 105.617188 80.078125 105.453125 C 80.324219 105.289062 80.550781 105.105469 80.757812 104.894531 C 80.964844 104.6875 81.152344 104.460938 81.316406 104.21875 C 81.480469 103.972656 81.617188 103.714844 81.730469 103.441406 C 81.84375 103.171875 81.929688 102.890625 81.988281 102.601562 C 82.046875 102.316406 82.074219 102.023438 82.078125 101.730469 L 82.078125 97.292969 C 82.078125 96.261719 81.09375 95.050781 79.382812 93.9375 L 77.398438 93.164062 Z M 77.398438 106.214844 " fill-opacity="1" fill-rule="nonzero"/><g clip-path="url(#6fcdbc2312)"><path fill="#ff6d00" d="M 130.394531 6.191406 L 37.648438 6.191406 C 36.90625 6.191406 36.171875 6.261719 35.445312 6.40625 C 34.714844 6.550781 34.011719 6.765625 33.324219 7.050781 C 32.640625 7.332031 31.988281 7.683594 31.371094 8.09375 C 30.757812 8.503906 30.1875 8.972656 29.660156 9.5 C 29.136719 10.023438 28.667969 10.59375 28.257812 11.210938 C 27.84375 11.824219 27.496094 12.476562 27.214844 13.160156 C 26.929688 13.847656 26.714844 14.554688 26.570312 15.28125 C 26.425781 16.007812 26.355469 16.742188 26.355469 17.484375 L 26.355469 96.019531 C 25.578125 97.117188 23.207031 100.082031 20.0625 100.324219 C 17.464844 100.519531 14.769531 98.839844 11.996094 95.355469 C 11.828125 95.144531 11.628906 94.96875 11.390625 94.835938 C 11.15625 94.703125 10.902344 94.617188 10.632812 94.585938 C 10.363281 94.550781 10.097656 94.570312 9.835938 94.644531 C 9.574219 94.714844 9.339844 94.835938 9.125 95 C 8.910156 95.167969 8.738281 95.371094 8.601562 95.605469 C 8.46875 95.84375 8.386719 96.09375 8.351562 96.363281 C 8.320312 96.632812 8.339844 96.898438 8.410156 97.160156 C 8.484375 97.421875 8.601562 97.660156 8.769531 97.875 C 12.238281 102.179688 15.882812 104.328125 19.609375 104.328125 L 20.304688 104.328125 C 26.304688 103.890625 29.984375 97.875 30.066406 97.617188 C 30.246094 97.300781 30.335938 96.960938 30.339844 96.597656 L 30.339844 17.484375 C 30.339844 17.007812 30.386719 16.535156 30.476562 16.066406 C 30.570312 15.601562 30.710938 15.144531 30.890625 14.707031 C 31.074219 14.265625 31.296875 13.847656 31.5625 13.449219 C 31.828125 13.054688 32.128906 12.6875 32.464844 12.351562 C 32.800781 12.011719 33.167969 11.710938 33.566406 11.445312 C 33.960938 11.183594 34.378906 10.957031 34.820312 10.777344 C 35.261719 10.59375 35.714844 10.457031 36.183594 10.363281 C 36.648438 10.269531 37.121094 10.222656 37.597656 10.222656 C 38.074219 10.222656 38.546875 10.269531 39.015625 10.363281 C 39.484375 10.457031 39.9375 10.59375 40.375 10.777344 C 40.816406 10.957031 41.234375 11.183594 41.632812 11.445312 C 42.027344 11.710938 42.394531 12.011719 42.730469 12.351562 C 43.070312 12.6875 43.371094 13.054688 43.636719 13.449219 C 43.898438 13.847656 44.125 14.265625 44.304688 14.707031 C 44.488281 15.144531 44.625 15.601562 44.71875 16.066406 C 44.8125 16.535156 44.859375 17.007812 44.859375 17.484375 L 44.859375 141.609375 C 44.859375 142.035156 44.984375 142.417969 45.226562 142.765625 C 45.464844 143.113281 45.785156 143.363281 46.179688 143.511719 C 46.40625 143.589844 46.636719 143.628906 46.875 143.625 C 47.492188 143.628906 48.003906 143.398438 48.40625 142.933594 L 61.3125 127.992188 L 75.703125 143.011719 C 76.101562 143.417969 76.585938 143.625 77.15625 143.625 C 77.71875 143.628906 78.199219 143.429688 78.59375 143.03125 L 93.273438 127.945312 L 106.664062 142.964844 C 106.855469 143.167969 107.078125 143.324219 107.335938 143.433594 C 107.59375 143.542969 107.859375 143.601562 108.140625 143.601562 C 108.417969 143.601562 108.6875 143.542969 108.941406 143.433594 C 109.199219 143.324219 109.421875 143.167969 109.617188 142.964844 L 124.136719 127.863281 L 138.332031 142.949219 C 138.617188 143.25 138.960938 143.445312 139.363281 143.535156 C 139.769531 143.625 140.160156 143.59375 140.546875 143.441406 C 140.929688 143.285156 141.238281 143.039062 141.472656 142.695312 C 141.703125 142.351562 141.816406 141.976562 141.816406 141.5625 L 141.816406 17.484375 C 141.816406 16.738281 141.742188 15.996094 141.597656 15.265625 C 141.449219 14.53125 141.234375 13.820312 140.945312 13.132812 C 140.65625 12.441406 140.304688 11.789062 139.886719 11.167969 C 139.46875 10.550781 138.996094 9.976562 138.464844 9.453125 C 137.933594 8.925781 137.355469 8.460938 136.730469 8.046875 C 136.105469 7.636719 135.449219 7.292969 134.757812 7.011719 C 134.0625 6.734375 133.351562 6.523438 132.617188 6.386719 C 131.882812 6.246094 131.140625 6.183594 130.394531 6.191406 Z M 61.378906 24.597656 L 127.085938 24.597656 C 127.355469 24.597656 127.613281 24.648438 127.859375 24.75 C 128.105469 24.855469 128.324219 25 128.511719 25.1875 C 128.703125 25.378906 128.847656 25.597656 128.949219 25.84375 C 129.054688 26.089844 129.105469 26.347656 129.105469 26.613281 C 129.105469 26.882812 129.054688 27.140625 128.949219 27.386719 C 128.847656 27.632812 128.703125 27.851562 128.511719 28.039062 C 128.324219 28.230469 128.105469 28.375 127.859375 28.476562 C 127.613281 28.582031 127.355469 28.632812 127.085938 28.632812 L 61.378906 28.632812 C 61.109375 28.632812 60.855469 28.582031 60.605469 28.476562 C 60.359375 28.375 60.140625 28.230469 59.953125 28.039062 C 59.761719 27.851562 59.617188 27.632812 59.515625 27.386719 C 59.414062 27.140625 59.363281 26.882812 59.363281 26.613281 C 59.363281 26.347656 59.414062 26.089844 59.515625 25.84375 C 59.617188 25.597656 59.761719 25.378906 59.953125 25.1875 C 60.140625 25 60.359375 24.855469 60.605469 24.75 C 60.855469 24.648438 61.109375 24.597656 61.378906 24.597656 Z M 61.378906 37.503906 L 127.085938 37.503906 C 127.355469 37.503906 127.613281 37.554688 127.859375 37.65625 C 128.105469 37.761719 128.324219 37.90625 128.511719 38.09375 C 128.703125 38.285156 128.847656 38.503906 128.949219 38.75 C 129.054688 38.996094 129.105469 39.253906 129.105469 39.519531 C 129.105469 39.789062 129.054688 40.046875 128.949219 40.292969 C 128.847656 40.539062 128.703125 40.757812 128.511719 40.945312 C 128.324219 41.136719 128.105469 41.28125 127.859375 41.382812 C 127.613281 41.488281 127.355469 41.539062 127.085938 41.539062 L 61.378906 41.539062 C 61.109375 41.539062 60.855469 41.488281 60.605469 41.382812 C 60.359375 41.28125 60.140625 41.136719 59.953125 40.945312 C 59.761719 40.757812 59.617188 40.539062 59.515625 40.292969 C 59.414062 40.046875 59.363281 39.789062 59.363281 39.519531 C 59.363281 39.253906 59.414062 38.996094 59.515625 38.75 C 59.617188 38.503906 59.761719 38.285156 59.953125 38.09375 C 60.140625 37.90625 60.359375 37.761719 60.605469 37.65625 C 60.855469 37.554688 61.109375 37.503906 61.378906 37.503906 Z M 59.363281 53.167969 C 59.359375 52.902344 59.410156 52.644531 59.511719 52.394531 C 59.613281 52.148438 59.757812 51.929688 59.949219 51.738281 C 60.136719 51.550781 60.355469 51.402344 60.605469 51.300781 C 60.851562 51.199219 61.109375 51.152344 61.378906 51.152344 L 80.367188 51.152344 C 80.632812 51.152344 80.890625 51.203125 81.136719 51.304688 C 81.386719 51.410156 81.605469 51.554688 81.792969 51.742188 C 81.980469 51.933594 82.128906 52.152344 82.230469 52.398438 C 82.332031 52.644531 82.382812 52.902344 82.382812 53.167969 C 82.382812 53.4375 82.332031 53.695312 82.230469 53.941406 C 82.128906 54.1875 81.980469 54.40625 81.792969 54.59375 C 81.605469 54.785156 81.386719 54.929688 81.136719 55.03125 C 80.890625 55.136719 80.632812 55.1875 80.367188 55.1875 L 61.378906 55.1875 C 61.105469 55.1875 60.839844 55.136719 60.589844 55.03125 C 60.335938 54.925781 60.113281 54.773438 59.925781 54.578125 C 59.734375 54.382812 59.589844 54.15625 59.492188 53.898438 C 59.394531 53.644531 59.351562 53.378906 59.363281 53.105469 Z M 86.046875 80.5625 C 86.046875 80.832031 85.996094 81.085938 85.890625 81.335938 C 85.789062 81.582031 85.644531 81.800781 85.453125 81.988281 C 85.265625 82.179688 85.046875 82.324219 84.800781 82.425781 C 84.554688 82.527344 84.296875 82.578125 84.027344 82.578125 C 83.761719 82.578125 83.503906 82.527344 83.257812 82.425781 C 83.011719 82.324219 82.792969 82.179688 82.601562 81.988281 C 82.414062 81.800781 82.269531 81.582031 82.164062 81.335938 C 82.0625 81.085938 82.011719 80.832031 82.011719 80.5625 L 82.011719 78.496094 C 82.015625 78.203125 81.992188 77.910156 81.9375 77.621094 C 81.882812 77.332031 81.800781 77.050781 81.691406 76.777344 C 81.582031 76.507812 81.449219 76.246094 81.289062 76 C 81.128906 75.753906 80.945312 75.523438 80.738281 75.3125 C 80.535156 75.101562 80.3125 74.914062 80.070312 74.746094 C 79.828125 74.578125 79.570312 74.4375 79.300781 74.320312 C 79.03125 74.203125 78.753906 74.113281 78.464844 74.050781 C 78.175781 73.988281 77.886719 73.953125 77.59375 73.949219 L 77.398438 73.949219 L 77.398438 88.773438 L 81.027344 90.179688 L 81.382812 90.355469 C 84.433594 92.371094 86.046875 94.742188 86.046875 97.292969 L 86.046875 101.714844 C 86.042969 102.273438 85.988281 102.824219 85.878906 103.375 C 85.769531 103.921875 85.605469 104.453125 85.394531 104.96875 C 85.179688 105.488281 84.914062 105.976562 84.605469 106.441406 C 84.292969 106.90625 83.941406 107.335938 83.546875 107.730469 C 83.152344 108.128906 82.722656 108.480469 82.257812 108.789062 C 81.792969 109.101562 81.300781 109.363281 80.785156 109.578125 C 80.269531 109.792969 79.734375 109.957031 79.1875 110.066406 C 78.640625 110.175781 78.085938 110.230469 77.527344 110.230469 L 77.332031 110.230469 L 77.332031 114.28125 C 77.332031 114.546875 77.28125 114.804688 77.179688 115.050781 C 77.078125 115.300781 76.933594 115.515625 76.742188 115.707031 C 76.554688 115.894531 76.335938 116.042969 76.089844 116.144531 C 75.84375 116.246094 75.585938 116.296875 75.316406 116.296875 C 75.050781 116.296875 74.792969 116.246094 74.546875 116.144531 C 74.296875 116.042969 74.082031 115.894531 73.890625 115.707031 C 73.703125 115.515625 73.554688 115.300781 73.453125 115.050781 C 73.351562 114.804688 73.300781 114.546875 73.300781 114.28125 L 73.300781 110.230469 L 72.316406 110.230469 C 71.757812 110.230469 71.203125 110.175781 70.65625 110.066406 C 70.109375 109.957031 69.574219 109.792969 69.058594 109.578125 C 68.542969 109.363281 68.050781 109.101562 67.589844 108.789062 C 67.125 108.480469 66.691406 108.128906 66.296875 107.730469 C 65.902344 107.335938 65.550781 106.90625 65.238281 106.441406 C 64.929688 105.976562 64.664062 105.488281 64.449219 104.96875 C 64.238281 104.453125 64.074219 103.921875 63.964844 103.375 C 63.855469 102.824219 63.800781 102.273438 63.796875 101.714844 L 63.796875 99.648438 C 63.796875 99.378906 63.847656 99.125 63.953125 98.875 C 64.054688 98.628906 64.199219 98.410156 64.390625 98.222656 C 64.578125 98.03125 64.796875 97.886719 65.042969 97.785156 C 65.289062 97.683594 65.546875 97.632812 65.816406 97.632812 C 66.082031 97.632812 66.339844 97.683594 66.585938 97.785156 C 66.832031 97.886719 67.050781 98.03125 67.242188 98.222656 C 67.429688 98.410156 67.574219 98.628906 67.679688 98.875 C 67.78125 99.125 67.832031 99.378906 67.832031 99.648438 L 67.832031 101.714844 C 67.832031 102.011719 67.859375 102.304688 67.917969 102.597656 C 67.976562 102.890625 68.0625 103.171875 68.179688 103.445312 C 68.292969 103.722656 68.433594 103.980469 68.601562 104.230469 C 68.765625 104.476562 68.957031 104.703125 69.167969 104.914062 C 69.378906 105.121094 69.609375 105.308594 69.855469 105.472656 C 70.105469 105.636719 70.367188 105.773438 70.644531 105.886719 C 70.917969 105.996094 71.203125 106.082031 71.496094 106.136719 C 71.789062 106.191406 72.082031 106.21875 72.382812 106.214844 L 73.363281 106.214844 L 73.363281 91.695312 L 68.832031 89.9375 C 68.703125 89.898438 68.582031 89.839844 68.476562 89.757812 C 65.410156 87.824219 63.863281 85.546875 63.863281 83 L 63.863281 78.496094 C 63.863281 77.9375 63.917969 77.386719 64.03125 76.835938 C 64.140625 76.289062 64.300781 75.757812 64.515625 75.242188 C 64.730469 74.722656 64.992188 74.234375 65.304688 73.769531 C 65.613281 73.304688 65.96875 72.875 66.363281 72.480469 C 66.757812 72.085938 67.1875 71.730469 67.652344 71.421875 C 68.117188 71.109375 68.609375 70.847656 69.125 70.632812 C 69.640625 70.417969 70.171875 70.257812 70.71875 70.144531 C 71.269531 70.035156 71.820312 69.980469 72.382812 69.980469 L 73.363281 69.980469 L 73.363281 66.253906 C 73.363281 65.984375 73.417969 65.726562 73.519531 65.480469 C 73.621094 65.234375 73.765625 65.015625 73.957031 64.828125 C 74.144531 64.636719 74.363281 64.492188 74.609375 64.390625 C 74.855469 64.289062 75.113281 64.238281 75.382812 64.238281 C 75.648438 64.238281 75.90625 64.289062 76.152344 64.390625 C 76.402344 64.492188 76.617188 64.636719 76.808594 64.828125 C 76.996094 65.015625 77.144531 65.234375 77.246094 65.480469 C 77.347656 65.726562 77.398438 65.984375 77.398438 66.253906 L 77.398438 69.980469 L 77.59375 69.980469 C 78.148438 69.984375 78.699219 70.042969 79.242188 70.15625 C 79.789062 70.269531 80.316406 70.433594 80.828125 70.652344 C 81.34375 70.867188 81.828125 71.132812 82.289062 71.441406 C 82.75 71.753906 83.175781 72.105469 83.570312 72.503906 C 83.960938 72.898438 84.3125 73.324219 84.617188 73.789062 C 84.925781 74.253906 85.1875 74.742188 85.398438 75.253906 C 85.613281 75.769531 85.773438 76.300781 85.882812 76.84375 C 85.988281 77.390625 86.042969 77.941406 86.046875 78.496094 Z M 89.386719 55.121094 C 89.117188 55.121094 88.859375 55.070312 88.613281 54.96875 C 88.367188 54.867188 88.148438 54.71875 87.960938 54.53125 C 87.769531 54.339844 87.625 54.125 87.523438 53.875 C 87.417969 53.628906 87.367188 53.371094 87.367188 53.105469 C 87.367188 52.835938 87.417969 52.582031 87.523438 52.332031 C 87.625 52.085938 87.769531 51.867188 87.960938 51.679688 C 88.148438 51.488281 88.367188 51.34375 88.613281 51.242188 C 88.859375 51.140625 89.117188 51.089844 89.386719 51.089844 L 99.644531 51.089844 C 99.914062 51.089844 100.171875 51.140625 100.417969 51.242188 C 100.664062 51.34375 100.882812 51.488281 101.070312 51.679688 C 101.261719 51.867188 101.40625 52.085938 101.507812 52.332031 C 101.609375 52.582031 101.664062 52.835938 101.664062 53.105469 C 101.664062 53.371094 101.609375 53.628906 101.507812 53.875 C 101.40625 54.125 101.261719 54.339844 101.070312 54.53125 C 100.882812 54.71875 100.664062 54.867188 100.417969 54.96875 C 100.171875 55.070312 99.914062 55.121094 99.644531 55.121094 Z M 119.167969 105.230469 L 99.402344 105.230469 C 99.136719 105.230469 98.878906 105.179688 98.632812 105.078125 C 98.386719 104.972656 98.167969 104.828125 97.976562 104.640625 C 97.789062 104.449219 97.644531 104.230469 97.539062 103.984375 C 97.4375 103.738281 97.386719 103.480469 97.386719 103.214844 C 97.386719 102.945312 97.4375 102.6875 97.539062 102.441406 C 97.644531 102.195312 97.789062 101.976562 97.976562 101.789062 C 98.167969 101.597656 98.386719 101.453125 98.632812 101.351562 C 98.878906 101.25 99.136719 101.195312 99.402344 101.195312 L 119.167969 101.195312 C 119.433594 101.195312 119.691406 101.25 119.9375 101.351562 C 120.183594 101.453125 120.402344 101.597656 120.59375 101.789062 C 120.78125 101.976562 120.925781 102.195312 121.03125 102.441406 C 121.132812 102.6875 121.183594 102.945312 121.183594 103.214844 C 121.183594 103.480469 121.132812 103.738281 121.03125 103.984375 C 120.925781 104.230469 120.78125 104.449219 120.59375 104.640625 C 120.402344 104.828125 120.183594 104.972656 119.9375 105.078125 C 119.691406 105.179688 119.433594 105.230469 119.167969 105.230469 Z M 128.328125 90.386719 L 99.417969 90.386719 C 99.152344 90.386719 98.894531 90.335938 98.648438 90.234375 C 98.402344 90.132812 98.183594 89.984375 97.992188 89.796875 C 97.804688 89.609375 97.660156 89.390625 97.558594 89.144531 C 97.453125 88.894531 97.402344 88.640625 97.402344 88.371094 C 97.402344 88.105469 97.453125 87.847656 97.558594 87.597656 C 97.660156 87.351562 97.804688 87.132812 97.992188 86.945312 C 98.183594 86.757812 98.402344 86.609375 98.648438 86.507812 C 98.894531 86.40625 99.152344 86.355469 99.417969 86.355469 L 128.328125 86.355469 C 128.597656 86.355469 128.855469 86.40625 129.101562 86.507812 C 129.347656 86.609375 129.566406 86.757812 129.753906 86.945312 C 129.945312 87.132812 130.089844 87.351562 130.191406 87.597656 C 130.296875 87.847656 130.347656 88.105469 130.347656 88.371094 C 130.347656 88.640625 130.296875 88.894531 130.191406 89.144531 C 130.089844 89.390625 129.945312 89.609375 129.753906 89.796875 C 129.566406 89.984375 129.347656 90.132812 129.101562 90.234375 C 128.855469 90.335938 128.597656 90.386719 128.328125 90.386719 Z M 128.328125 76.273438 L 99.417969 76.273438 C 99.152344 76.273438 98.894531 76.21875 98.648438 76.117188 C 98.402344 76.015625 98.183594 75.871094 97.992188 75.679688 C 97.804688 75.492188 97.660156 75.273438 97.558594 75.027344 C 97.453125 74.78125 97.402344 74.523438 97.402344 74.253906 C 97.402344 73.988281 97.453125 73.730469 97.558594 73.484375 C 97.660156 73.234375 97.804688 73.019531 97.992188 72.828125 C 98.183594 72.640625 98.402344 72.496094 98.648438 72.390625 C 98.894531 72.289062 99.152344 72.238281 99.417969 72.238281 L 128.328125 72.238281 C 128.597656 72.238281 128.855469 72.289062 129.101562 72.390625 C 129.347656 72.496094 129.566406 72.640625 129.753906 72.828125 C 129.945312 73.019531 130.089844 73.234375 130.191406 73.484375 C 130.296875 73.730469 130.347656 73.988281 130.347656 74.253906 C 130.347656 74.523438 130.296875 74.78125 130.191406 75.027344 C 130.089844 75.273438 129.945312 75.492188 129.753906 75.679688 C 129.566406 75.871094 129.347656 76.015625 129.101562 76.117188 C 128.855469 76.21875 128.597656 76.273438 128.328125 76.273438 Z M 128.328125 76.273438 " fill-opacity="1" fill-rule="nonzero"/></g></svg>