<svg xmlns="http://www.w3.org/2000/svg" xmlns:xlink="http://www.w3.org/1999/xlink" width="200" zoomAndPan="magnify" viewBox="0 0 150 149.999998" height="200" preserveAspectRatio="xMidYMid meet" version="1.0"><defs><clipPath id="010e517903"><path d="M 18 17 L 147.90625 17 L 147.90625 83 L 18 83 Z M 18 17 " clip-rule="nonzero"/></clipPath><clipPath id="b637f8195a"><path d="M 2.40625 70 L 132 70 L 132 135.226562 L 2.40625 135.226562 Z M 2.40625 70 " clip-rule="nonzero"/></clipPath><clipPath id="67573a03f6"><path d="M 33.011719 38.453125 L 34 38.453125 L 34 40 L 33.011719 40 Z M 33.011719 38.453125 " clip-rule="nonzero"/></clipPath><clipPath id="3a2957fd61"><path d="M 34 38.453125 L 35 38.453125 L 35 40 L 34 40 Z M 34 38.453125 " clip-rule="nonzero"/></clipPath><clipPath id="0f3cf9209e"><path d="M 33.011719 39 L 35 39 L 35 41 L 33.011719 41 Z M 33.011719 39 " clip-rule="nonzero"/></clipPath><clipPath id="469124fc54"><path d="M 35 41 L 36 41 L 36 41.453125 L 35 41.453125 Z M 35 41 " clip-rule="nonzero"/></clipPath><clipPath id="8398e9fe51"><path d="M 33.011719 40 L 36.011719 40 L 36.011719 41.453125 L 33.011719 41.453125 Z M 33.011719 40 " clip-rule="nonzero"/></clipPath></defs><g clip-path="url(#010e517903)"><path fill="#ff6d00" d="M 145.652344 58.949219 C 144.039062 57.742188 141.757812 58.078125 140.550781 59.6875 L 133.175781 69.558594 C 130.101562 42.847656 109.4375 21.652344 82.273438 18.234375 C 53.332031 14.574219 26.535156 32.296875 18.535156 60.359375 C 17.984375 62.296875 19.113281 64.316406 21.046875 64.867188 C 22.988281 65.417969 25 64.292969 25.554688 62.359375 C 32.554688 37.789062 56.039062 22.261719 81.359375 25.46875 C 105.207031 28.46875 123.332031 47.113281 125.949219 70.585938 L 116.101562 63.226562 C 114.484375 62.019531 112.203125 62.355469 110.996094 63.964844 C 109.792969 65.578125 110.121094 67.863281 111.730469 69.070312 L 128.648438 81.710938 C 129.285156 82.179688 130.050781 82.433594 130.832031 82.433594 C 131.011719 82.433594 131.179688 82.421875 131.355469 82.394531 C 132.316406 82.257812 133.175781 81.742188 133.753906 80.96875 L 146.390625 64.050781 C 147.597656 62.441406 147.261719 60.15625 145.652344 58.949219 " fill-opacity="1" fill-rule="nonzero"/></g><g clip-path="url(#b637f8195a)"><path fill="#ff6d00" d="M 129.148438 88.289062 C 127.207031 87.738281 125.199219 88.863281 124.644531 90.796875 C 117.640625 115.371094 94.148438 130.898438 68.828125 127.695312 C 45.015625 124.691406 26.902344 106.089844 24.242188 82.664062 L 33.917969 90.207031 C 35.5 91.445312 37.792969 91.160156 39.035156 89.574219 C 40.269531 87.988281 39.988281 85.695312 38.398438 84.460938 L 21.757812 71.484375 C 20.171875 70.242188 17.875 70.527344 16.644531 72.113281 L 3.65625 88.753906 C 2.417969 90.339844 2.695312 92.632812 4.28125 93.871094 C 4.953125 94.390625 5.738281 94.640625 6.523438 94.640625 C 7.609375 94.640625 8.683594 94.160156 9.398438 93.238281 L 16.996094 83.507812 C 20.039062 110.257812 40.722656 131.5 67.917969 134.929688 C 70.441406 135.25 72.953125 135.40625 75.433594 135.40625 C 101.394531 135.40625 124.359375 118.40625 131.660156 92.796875 C 132.210938 90.859375 131.085938 88.839844 129.148438 88.289062 " fill-opacity="1" fill-rule="nonzero"/></g><path fill="#ff6d00" d="M 87.839844 97.960938 C 87.183594 98.785156 86.191406 99.558594 84.890625 100.253906 C 84.019531 100.726562 82.894531 101.082031 81.535156 101.3125 L 81.535156 81.578125 C 84.125 82.347656 86.074219 83.476562 87.355469 84.9375 C 88.964844 86.800781 89.738281 89.644531 89.652344 93.398438 L 89.652344 93.445312 C 89.652344 93.710938 89.601562 94.324219 89.238281 95.464844 C 88.984375 96.292969 88.511719 97.132812 87.839844 97.960938 Z M 65.390625 69.496094 C 64.515625 68.652344 63.898438 67.75 63.558594 66.828125 C 63.1875 65.78125 62.949219 64.738281 62.859375 63.730469 C 62.691406 60.566406 63.6875 57.90625 65.910156 55.59375 C 67.773438 53.648438 70.433594 52.445312 73.835938 52.003906 L 73.835938 73.589844 C 72.003906 73.238281 70.488281 72.761719 69.320312 72.167969 C 67.675781 71.328125 66.355469 70.433594 65.390625 69.496094 Z M 64.949219 98.457031 C 62.464844 96.570312 60.960938 94.34375 60.382812 91.828125 C 60.203125 90.484375 59.1875 89.015625 56.867188 88.914062 C 55.371094 88.878906 54.628906 89.433594 54.214844 89.929688 C 53.796875 90.421875 53.371094 91.289062 53.652344 92.585938 C 54.578125 97.558594 57.144531 101.410156 61.28125 104.03125 C 64.785156 106.253906 69 107.585938 73.835938 108 L 73.835938 110.722656 C 73.835938 112.195312 74.46875 113.09375 75.050781 113.636719 C 75.785156 114.277344 76.667969 114.613281 77.609375 114.613281 C 78.511719 114.613281 79.367188 114.3125 80.210938 113.667969 C 81.066406 112.964844 81.535156 111.917969 81.535156 110.722656 L 81.535156 107.925781 C 86.175781 107.304688 89.707031 105.679688 92.066406 103.085938 C 94.675781 100.207031 96.113281 97.003906 96.34375 93.644531 C 96.523438 91.910156 96.425781 90.074219 96.050781 88.023438 C 95.667969 85.953125 94.898438 84.015625 93.757812 82.261719 C 92.601562 80.488281 90.894531 78.871094 88.695312 77.472656 C 86.816406 76.269531 84.464844 75.359375 81.535156 74.707031 L 81.535156 52.667969 C 82.210938 52.917969 82.820312 53.230469 83.382812 53.613281 C 84.570312 54.417969 85.59375 55.34375 86.429688 56.375 C 87.21875 57.335938 87.816406 58.425781 88.210938 59.605469 C 88.617188 60.832031 88.875 62.035156 88.96875 63.242188 C 89.089844 64.289062 89.492188 65.097656 90.171875 65.640625 C 90.613281 65.992188 91.382812 66.382812 92.511719 66.253906 C 93.289062 66.15625 95.160156 65.644531 95.734375 62.550781 C 95.625 57.667969 94.054688 53.695312 91.0625 50.730469 C 88.507812 48.214844 85.308594 46.574219 81.535156 45.835938 L 81.535156 42.441406 C 81.535156 41.25 81.066406 40.210938 80.183594 39.476562 C 78.609375 38.234375 76.460938 38.25 75 39.582031 C 74.46875 40.078125 73.835938 40.976562 73.835938 42.441406 L 73.835938 45.402344 C 71.523438 45.625 69.351562 46.113281 67.347656 46.859375 C 64.773438 47.832031 62.578125 49.175781 60.824219 50.855469 C 59.0625 52.535156 57.710938 54.527344 56.804688 56.789062 C 55.890625 59.089844 55.550781 61.535156 55.789062 64.085938 C 56.308594 68.773438 58.273438 72.605469 61.636719 75.476562 C 64.664062 78.058594 68.714844 79.6875 73.835938 80.332031 L 73.835938 101.421875 C 70.058594 101.058594 67.070312 100.0625 64.949219 98.457031 " fill-opacity="1" fill-rule="nonzero"/><g clip-path="url(#67573a03f6)"><path fill="#ff6d00" d="M 33.890625 39.21875 C 33.917969 39.21875 33.9375 39.195312 33.9375 39.171875 L 33.9375 38.816406 C 33.9375 38.789062 33.914062 38.769531 33.890625 38.769531 C 33.867188 38.769531 33.84375 38.792969 33.84375 38.816406 L 33.84375 39.171875 C 33.839844 39.199219 33.863281 39.21875 33.890625 39.21875 Z M 33.890625 39.21875 " fill-opacity="1" fill-rule="nonzero"/></g><g clip-path="url(#3a2957fd61)"><path fill="#ff6d00" d="M 34.148438 39.039062 C 34.175781 39.039062 34.195312 39.019531 34.195312 38.996094 L 34.195312 38.558594 C 34.195312 38.53125 34.171875 38.511719 34.148438 38.511719 C 34.125 38.511719 34.101562 38.535156 34.101562 38.558594 L 34.101562 38.996094 C 34.097656 39.023438 34.121094 39.039062 34.148438 39.039062 Z M 34.148438 39.039062 " fill-opacity="1" fill-rule="nonzero"/><path fill="#ff6d00" d="M 34.410156 39.039062 C 34.4375 39.039062 34.457031 39.019531 34.457031 38.996094 L 34.457031 38.769531 C 34.457031 38.742188 34.433594 38.726562 34.410156 38.726562 C 34.386719 38.726562 34.367188 38.746094 34.367188 38.769531 L 34.367188 38.996094 C 34.367188 39.023438 34.382812 39.039062 34.410156 39.039062 Z M 34.410156 39.039062 " fill-opacity="1" fill-rule="nonzero"/><path fill="#ff6d00" d="M 34.808594 39.125 C 34.832031 39.125 34.851562 39.101562 34.851562 39.078125 L 34.851562 38.5 C 34.851562 38.472656 34.828125 38.453125 34.808594 38.453125 C 34.785156 38.453125 34.761719 38.476562 34.761719 38.5 L 34.761719 39.074219 C 34.761719 39.105469 34.78125 39.125 34.808594 39.125 Z M 34.808594 39.125 " fill-opacity="1" fill-rule="nonzero"/></g><g clip-path="url(#0f3cf9209e)"><path fill="#ff6d00" d="M 34.371094 40.269531 C 34.683594 40.269531 34.941406 40.015625 34.941406 39.699219 C 34.941406 39.382812 34.683594 39.128906 34.371094 39.128906 C 34.054688 39.128906 33.796875 39.382812 33.796875 39.699219 C 33.796875 40.015625 34.054688 40.269531 34.371094 40.269531 Z M 34.167969 39.835938 C 34.167969 39.808594 34.191406 39.789062 34.214844 39.789062 C 34.234375 39.789062 34.257812 39.8125 34.257812 39.835938 L 34.257812 39.871094 C 34.257812 39.90625 34.285156 39.929688 34.320312 39.929688 L 34.40625 39.929688 C 34.441406 39.929688 34.46875 39.90625 34.46875 39.871094 L 34.46875 39.796875 C 34.46875 39.785156 34.464844 39.765625 34.4375 39.757812 L 34.253906 39.726562 C 34.199219 39.707031 34.160156 39.652344 34.160156 39.597656 L 34.160156 39.519531 C 34.160156 39.4375 34.230469 39.367188 34.3125 39.363281 L 34.3125 39.328125 C 34.3125 39.304688 34.335938 39.285156 34.359375 39.285156 C 34.382812 39.285156 34.402344 39.308594 34.402344 39.328125 L 34.402344 39.359375 C 34.488281 39.363281 34.554688 39.433594 34.554688 39.515625 L 34.554688 39.550781 C 34.554688 39.578125 34.53125 39.597656 34.511719 39.597656 C 34.488281 39.597656 34.464844 39.574219 34.464844 39.550781 L 34.464844 39.515625 C 34.464844 39.480469 34.4375 39.457031 34.402344 39.453125 L 34.316406 39.453125 C 34.28125 39.453125 34.253906 39.476562 34.253906 39.511719 L 34.253906 39.589844 C 34.253906 39.605469 34.265625 39.617188 34.28125 39.625 L 34.46875 39.660156 C 34.527344 39.679688 34.5625 39.734375 34.558594 39.792969 L 34.558594 39.867188 C 34.558594 39.949219 34.492188 40.019531 34.40625 40.023438 L 34.40625 40.058594 C 34.40625 40.085938 34.382812 40.105469 34.363281 40.105469 C 34.339844 40.105469 34.316406 40.082031 34.316406 40.058594 L 34.316406 40.023438 C 34.234375 40.019531 34.164062 39.949219 34.164062 39.867188 Z M 34.167969 39.835938 " fill-opacity="1" fill-rule="nonzero"/></g><g clip-path="url(#469124fc54)"><path fill="#ff6d00" d="M 35.800781 41.378906 C 35.800781 41.402344 35.824219 41.425781 35.851562 41.425781 C 35.875 41.425781 35.898438 41.402344 35.898438 41.378906 C 35.898438 41.351562 35.875 41.328125 35.851562 41.328125 C 35.824219 41.332031 35.800781 41.351562 35.800781 41.378906 Z M 35.800781 41.378906 " fill-opacity="1" fill-rule="nonzero"/></g><g clip-path="url(#8398e9fe51)"><path fill="#ff6d00" d="M 36.234375 41.597656 L 35.632812 41.597656 L 35.632812 40.546875 L 36.136719 40.546875 C 36.160156 40.546875 36.179688 40.523438 36.179688 40.5 C 36.179688 40.480469 36.15625 40.457031 36.136719 40.457031 L 35.632812 40.457031 L 35.632812 40.304688 C 35.632812 40.277344 35.609375 40.257812 35.585938 40.257812 C 35.5625 40.257812 35.542969 40.28125 35.542969 40.304688 L 35.542969 40.457031 L 35.265625 40.457031 C 35.242188 40.457031 35.222656 40.476562 35.222656 40.5 L 35.222656 40.640625 L 35.132812 40.640625 L 34.855469 40.394531 C 34.847656 40.386719 34.835938 40.382812 34.824219 40.382812 L 34.070312 40.382812 C 34.046875 40.382812 34.023438 40.402344 34.023438 40.425781 C 34.023438 40.429688 34.019531 40.457031 34.019531 40.457031 C 34.019531 40.523438 34.042969 40.589844 34.082031 40.640625 L 34.027344 40.640625 C 34.027344 40.640625 33.816406 40.320312 33.808594 40.308594 C 33.742188 40.207031 33.625 40.140625 33.503906 40.179688 L 33.429688 40.203125 C 33.40625 40.214844 33.390625 40.242188 33.402344 40.265625 C 33.402344 40.265625 33.421875 40.300781 33.421875 40.300781 C 33.316406 40.242188 33.179688 40.234375 33.089844 40.324219 L 33.035156 40.382812 C 33.019531 40.40625 33.023438 40.4375 33.042969 40.453125 L 33.722656 40.921875 C 33.722656 40.921875 34.792969 41.320312 34.792969 41.320312 C 34.800781 41.320312 35.21875 41.320312 35.21875 41.320312 L 35.21875 41.394531 C 35.21875 41.421875 35.238281 41.441406 35.265625 41.441406 L 35.535156 41.441406 L 35.535156 41.644531 C 35.535156 41.671875 35.558594 41.6875 35.578125 41.6875 L 36.226562 41.6875 C 36.253906 41.6875 36.273438 41.667969 36.273438 41.644531 C 36.273438 41.621094 36.257812 41.597656 36.234375 41.597656 Z M 33.53125 40.265625 C 33.617188 40.238281 33.707031 40.308594 33.75 40.390625 L 33.851562 40.550781 L 33.578125 40.390625 L 33.507812 40.273438 Z M 35.222656 41.226562 L 34.820312 41.226562 L 33.769531 40.835938 L 33.140625 40.402344 L 33.15625 40.386719 C 33.21875 40.324219 33.332031 40.347656 33.40625 40.398438 L 33.8125 40.636719 L 33.972656 40.730469 C 33.980469 40.734375 33.988281 40.738281 33.996094 40.738281 L 34.675781 40.738281 C 34.703125 40.738281 34.722656 40.714844 34.722656 40.691406 C 34.722656 40.664062 34.699219 40.644531 34.675781 40.644531 L 34.242188 40.644531 C 34.171875 40.636719 34.117188 40.554688 34.109375 40.484375 L 34.804688 40.484375 L 35.082031 40.726562 C 35.089844 40.734375 35.101562 40.738281 35.113281 40.738281 L 35.21875 40.738281 Z M 35.222656 41.226562 " fill-opacity="1" fill-rule="nonzero"/></g></svg>