<svg xmlns="http://www.w3.org/2000/svg" xmlns:xlink="http://www.w3.org/1999/xlink" width="200" zoomAndPan="magnify" viewBox="0 0 150 149.999998" height="200" preserveAspectRatio="xMidYMid meet" version="1.0"><defs><clipPath id="8850fb394a"><path d="M 11.933594 6.71875 L 137.933594 6.71875 L 137.933594 143.21875 L 11.933594 143.21875 Z M 11.933594 6.71875 " clip-rule="nonzero"/></clipPath></defs><g clip-path="url(#8850fb394a)"><path fill="#ff6d00" d="M 26.5625 35.21875 L 81.980469 35.21875 C 82.375 35.214844 82.746094 35.117188 83.09375 34.929688 C 83.441406 34.738281 83.722656 34.480469 83.941406 34.148438 C 84.183594 33.761719 84.304688 33.335938 84.304688 32.875 L 84.304688 20.722656 C 84.304688 20.414062 84.246094 20.113281 84.128906 19.828125 C 84.011719 19.542969 83.84375 19.289062 83.625 19.070312 C 83.410156 18.851562 83.15625 18.679688 82.871094 18.5625 C 82.585938 18.441406 82.289062 18.378906 81.980469 18.378906 L 26.5625 18.378906 C 26.253906 18.378906 25.957031 18.441406 25.671875 18.5625 C 25.386719 18.679688 25.136719 18.851562 24.917969 19.070312 C 24.699219 19.289062 24.53125 19.542969 24.414062 19.828125 C 24.296875 20.113281 24.238281 20.414062 24.242188 20.722656 L 24.242188 32.875 C 24.238281 33.183594 24.296875 33.480469 24.414062 33.769531 C 24.53125 34.054688 24.699219 34.308594 24.917969 34.527344 C 25.136719 34.746094 25.386719 34.914062 25.671875 35.035156 C 25.957031 35.15625 26.253906 35.214844 26.5625 35.21875 Z M 28.90625 23.046875 L 79.636719 23.046875 L 79.636719 30.550781 L 28.90625 30.550781 Z M 34.488281 86.820312 L 26.5625 86.820312 C 26.253906 86.820312 25.957031 86.882812 25.671875 87.003906 C 25.386719 87.121094 25.136719 87.292969 24.917969 87.511719 C 24.699219 87.730469 24.53125 87.984375 24.414062 88.269531 C 24.296875 88.554688 24.238281 88.855469 24.242188 89.164062 L 24.242188 96.886719 C 24.238281 97.195312 24.296875 97.492188 24.414062 97.777344 C 24.53125 98.0625 24.699219 98.316406 24.917969 98.535156 C 25.136719 98.753906 25.386719 98.925781 25.671875 99.042969 C 25.957031 99.164062 26.253906 99.222656 26.5625 99.226562 L 34.488281 99.226562 C 34.800781 99.222656 35.097656 99.164062 35.386719 99.046875 C 35.671875 98.925781 35.925781 98.757812 36.144531 98.539062 C 36.363281 98.320312 36.535156 98.066406 36.652344 97.777344 C 36.769531 97.492188 36.832031 97.195312 36.832031 96.882812 L 36.832031 89.164062 C 36.832031 88.851562 36.769531 88.554688 36.652344 88.269531 C 36.535156 87.980469 36.363281 87.726562 36.144531 87.507812 C 35.925781 87.289062 35.671875 87.117188 35.386719 87 C 35.097656 86.878906 34.800781 86.820312 34.488281 86.820312 Z M 32.144531 94.554688 L 28.90625 94.554688 L 28.90625 91.488281 L 32.152344 91.488281 Z M 90.242188 78.410156 C 91.253906 77.394531 92.460938 76.773438 93.875 76.546875 L 93.875 75.175781 C 93.863281 74.863281 93.917969 74.558594 94.03125 74.269531 C 94.144531 73.976562 94.3125 73.714844 94.53125 73.492188 C 94.75 73.265625 95.003906 73.09375 95.292969 72.972656 C 95.582031 72.847656 95.886719 72.789062 96.199219 72.789062 C 96.511719 72.789062 96.8125 72.847656 97.105469 72.972656 C 97.394531 73.09375 97.648438 73.265625 97.867188 73.492188 C 98.085938 73.714844 98.25 73.976562 98.367188 74.269531 C 98.480469 74.558594 98.53125 74.863281 98.523438 75.175781 L 98.523438 76.546875 C 99.835938 76.765625 100.976562 77.332031 101.949219 78.238281 C 102.011719 78.289062 102.070312 78.34375 102.125 78.40625 C 103.160156 79.433594 103.792969 80.667969 104.015625 82.113281 C 104.066406 82.4375 104.089844 82.765625 104.085938 83.097656 C 104.085938 83.40625 104.027344 83.707031 103.910156 83.992188 C 103.789062 84.28125 103.621094 84.535156 103.402344 84.753906 C 103.183594 84.972656 102.929688 85.140625 102.640625 85.261719 C 102.355469 85.378906 102.054688 85.4375 101.746094 85.4375 C 101.433594 85.4375 101.136719 85.378906 100.851562 85.261719 C 100.5625 85.140625 100.308594 84.972656 100.089844 84.753906 C 99.871094 84.535156 99.703125 84.28125 99.582031 83.992188 C 99.464844 83.707031 99.40625 83.40625 99.40625 83.097656 C 99.40625 82.871094 99.367188 82.65625 99.28125 82.449219 C 99.1875 82.160156 99.03125 81.910156 98.816406 81.699219 C 98.433594 81.316406 97.972656 81.125 97.433594 81.125 L 94.9375 81.125 C 94.398438 81.125 93.9375 81.316406 93.554688 81.695312 C 93.441406 81.800781 93.347656 81.917969 93.269531 82.046875 C 93.03125 82.429688 92.933594 82.839844 92.976562 83.289062 C 93.015625 83.734375 93.191406 84.121094 93.492188 84.453125 C 93.890625 84.859375 94.371094 85.066406 94.9375 85.082031 L 97.441406 85.082031 C 98.863281 85.082031 100.152344 85.496094 101.308594 86.324219 C 101.609375 86.535156 101.886719 86.769531 102.144531 87.027344 L 102.273438 87.179688 C 103.101562 88.042969 103.644531 89.058594 103.90625 90.222656 C 104.03125 90.714844 104.089844 91.210938 104.082031 91.71875 C 104.078125 93.027344 103.722656 94.234375 103.007812 95.332031 C 102.753906 95.726562 102.460938 96.09375 102.128906 96.429688 C 101.117188 97.433594 99.910156 98.054688 98.503906 98.285156 L 98.503906 99.660156 C 98.511719 99.972656 98.457031 100.277344 98.34375 100.570312 C 98.230469 100.859375 98.0625 101.121094 97.84375 101.34375 C 97.625 101.570312 97.371094 101.742188 97.082031 101.867188 C 96.792969 101.988281 96.492188 102.046875 96.175781 102.046875 C 95.863281 102.046875 95.5625 101.988281 95.273438 101.867188 C 94.984375 101.742188 94.730469 101.570312 94.511719 101.34375 C 94.292969 101.121094 94.125 100.859375 94.011719 100.570312 C 93.898438 100.277344 93.84375 99.972656 93.851562 99.660156 L 93.851562 98.285156 C 93.128906 98.164062 92.445312 97.929688 91.800781 97.582031 C 91.222656 97.277344 90.703125 96.894531 90.242188 96.429688 C 89.613281 95.808594 89.128906 95.085938 88.789062 94.269531 C 88.449219 93.453125 88.277344 92.605469 88.277344 91.71875 C 88.277344 91.410156 88.335938 91.109375 88.457031 90.824219 C 88.574219 90.535156 88.746094 90.285156 88.964844 90.0625 C 89.183594 89.84375 89.4375 89.675781 89.722656 89.554688 C 90.011719 89.4375 90.308594 89.378906 90.621094 89.378906 C 90.929688 89.378906 91.230469 89.4375 91.515625 89.554688 C 91.804688 89.675781 92.054688 89.84375 92.277344 90.0625 C 92.496094 90.285156 92.664062 90.535156 92.78125 90.824219 C 92.902344 91.109375 92.960938 91.410156 92.960938 91.71875 C 92.957031 92.269531 93.144531 92.738281 93.53125 93.125 C 93.921875 93.511719 94.390625 93.710938 94.9375 93.714844 L 97.421875 93.714844 C 97.6875 93.710938 97.9375 93.660156 98.179688 93.558594 C 98.425781 93.457031 98.636719 93.3125 98.824219 93.125 C 99.011719 92.941406 99.152344 92.726562 99.257812 92.484375 C 99.359375 92.242188 99.410156 91.988281 99.414062 91.726562 C 99.410156 91.355469 99.3125 91.011719 99.117188 90.691406 C 99.050781 90.589844 98.976562 90.496094 98.894531 90.410156 C 98.5 89.976562 98.007812 89.757812 97.421875 89.753906 L 94.957031 89.753906 C 93.839844 89.75 92.789062 89.484375 91.804688 88.957031 C 91.230469 88.644531 90.710938 88.257812 90.246094 87.796875 L 90.132812 87.683594 C 89.835938 87.375 89.574219 87.039062 89.34375 86.675781 C 89.109375 86.316406 88.917969 85.933594 88.761719 85.535156 C 88.601562 85.136719 88.484375 84.726562 88.40625 84.304688 C 88.332031 83.882812 88.292969 83.457031 88.300781 83.027344 C 88.304688 82.597656 88.351562 82.175781 88.4375 81.753906 C 88.527344 81.335938 88.652344 80.925781 88.820312 80.53125 C 88.988281 80.136719 89.191406 79.761719 89.429688 79.40625 C 89.667969 79.050781 89.941406 78.71875 90.242188 78.417969 Z M 81.980469 40.4375 L 74.054688 40.4375 C 73.746094 40.4375 73.449219 40.5 73.164062 40.617188 C 72.878906 40.738281 72.628906 40.90625 72.410156 41.125 C 72.191406 41.347656 72.023438 41.597656 71.90625 41.886719 C 71.789062 42.171875 71.730469 42.46875 71.730469 42.777344 L 71.730469 50.5 C 71.730469 50.808594 71.789062 51.109375 71.90625 51.394531 C 72.023438 51.679688 72.191406 51.933594 72.410156 52.152344 C 72.628906 52.371094 72.878906 52.539062 73.164062 52.660156 C 73.449219 52.78125 73.746094 52.839844 74.054688 52.84375 L 81.980469 52.84375 C 82.289062 52.839844 82.585938 52.78125 82.871094 52.660156 C 83.15625 52.539062 83.40625 52.371094 83.625 52.152344 C 83.84375 51.933594 84.011719 51.679688 84.128906 51.394531 C 84.246094 51.109375 84.304688 50.808594 84.304688 50.5 L 84.304688 42.78125 C 84.304688 42.46875 84.246094 42.171875 84.128906 41.886719 C 84.011719 41.601562 83.84375 41.347656 83.625 41.128906 C 83.40625 40.910156 83.15625 40.738281 82.871094 40.621094 C 82.585938 40.5 82.289062 40.441406 81.980469 40.4375 Z M 79.640625 48.171875 L 76.398438 48.171875 L 76.398438 45.121094 L 79.636719 45.121094 Z M 81.980469 55.894531 L 74.054688 55.894531 C 73.746094 55.894531 73.449219 55.957031 73.164062 56.074219 C 72.878906 56.195312 72.628906 56.363281 72.410156 56.585938 C 72.191406 56.804688 72.023438 57.058594 71.90625 57.34375 C 71.789062 57.628906 71.730469 57.925781 71.730469 58.234375 L 71.730469 65.964844 C 71.730469 66.273438 71.789062 66.570312 71.90625 66.855469 C 72.023438 67.140625 72.191406 67.394531 72.410156 67.613281 C 72.628906 67.832031 72.878906 68.003906 73.164062 68.121094 C 73.449219 68.242188 73.746094 68.300781 74.054688 68.304688 L 81.980469 68.304688 C 82.257812 68.304688 82.527344 68.257812 82.785156 68.160156 C 83.046875 68.066406 83.28125 67.925781 83.492188 67.746094 C 83.703125 67.5625 83.871094 67.351562 84.007812 67.109375 C 84.140625 66.863281 84.226562 66.605469 84.265625 66.332031 C 84.292969 66.210938 84.304688 66.085938 84.300781 65.964844 L 84.300781 58.242188 C 84.300781 57.933594 84.242188 57.636719 84.125 57.347656 C 84.007812 57.0625 83.839844 56.8125 83.621094 56.589844 C 83.40625 56.371094 83.152344 56.203125 82.871094 56.082031 C 82.585938 55.960938 82.289062 55.902344 81.980469 55.898438 Z M 79.640625 63.628906 L 76.398438 63.628906 L 76.398438 60.582031 L 79.636719 60.582031 Z M 137.882812 128.324219 C 137.898438 128.230469 137.910156 128.140625 137.914062 128.046875 L 137.914062 126.121094 L 137.957031 126.121094 L 137.957031 32.050781 C 137.957031 31.738281 137.898438 31.433594 137.777344 31.144531 C 137.65625 30.851562 137.484375 30.597656 137.261719 30.375 C 137.039062 30.152344 136.78125 29.980469 136.492188 29.859375 C 136.199219 29.738281 135.898438 29.675781 135.582031 29.675781 L 96.625 29.675781 L 96.625 15.789062 C 96.625 15.207031 96.566406 14.632812 96.449219 14.0625 C 96.335938 13.492188 96.167969 12.941406 95.945312 12.402344 C 95.722656 11.867188 95.449219 11.359375 95.125 10.875 C 94.800781 10.390625 94.433594 9.945312 94.023438 9.535156 C 93.613281 9.121094 93.167969 8.757812 92.683594 8.433594 C 92.203125 8.109375 91.691406 7.835938 91.15625 7.613281 C 90.617188 7.390625 90.066406 7.21875 89.496094 7.105469 C 88.925781 6.992188 88.351562 6.933594 87.769531 6.929688 L 20.773438 6.929688 C 20.191406 6.933594 19.617188 6.988281 19.046875 7.105469 C 18.476562 7.21875 17.925781 7.386719 17.386719 7.609375 C 16.851562 7.832031 16.34375 8.105469 15.859375 8.429688 C 15.378906 8.753906 14.929688 9.121094 14.519531 9.53125 C 14.109375 9.941406 13.746094 10.386719 13.421875 10.871094 C 13.101562 11.355469 12.828125 11.863281 12.605469 12.402344 C 12.382812 12.9375 12.21875 13.492188 12.105469 14.058594 C 11.992188 14.628906 11.933594 15.207031 11.933594 15.785156 L 11.933594 101.820312 C 11.933594 102.402344 11.992188 102.976562 12.105469 103.546875 C 12.21875 104.117188 12.386719 104.667969 12.605469 105.207031 C 12.828125 105.742188 13.101562 106.25 13.421875 106.734375 C 13.746094 107.21875 14.113281 107.664062 14.523438 108.074219 C 14.933594 108.488281 15.378906 108.855469 15.859375 109.175781 C 16.34375 109.5 16.851562 109.773438 17.390625 109.996094 C 17.925781 110.21875 18.476562 110.386719 19.046875 110.503906 C 19.617188 110.617188 20.191406 110.675781 20.773438 110.675781 L 29.386719 110.675781 L 29.386719 140.738281 C 29.386719 140.929688 29.414062 141.121094 29.460938 141.304688 C 29.511719 141.492188 29.582031 141.667969 29.671875 141.839844 C 29.765625 142.007812 29.878906 142.160156 30.007812 142.300781 C 30.140625 142.441406 30.285156 142.566406 30.449219 142.671875 C 30.609375 142.773438 30.78125 142.859375 30.964844 142.921875 C 31.148438 142.980469 31.332031 143.019531 31.527344 143.035156 C 31.71875 143.050781 31.90625 143.042969 32.097656 143.011719 C 32.289062 142.980469 32.472656 142.925781 32.648438 142.847656 L 92.664062 142.847656 C 92.933594 142.855469 93.195312 142.816406 93.449219 142.730469 C 93.703125 142.640625 93.933594 142.511719 94.140625 142.335938 C 94.34375 142.164062 94.511719 141.957031 94.640625 141.722656 C 94.773438 141.484375 94.855469 141.234375 94.890625 140.964844 C 94.96875 140.738281 95.007812 140.503906 95.011719 140.261719 L 95.011719 131.507812 L 135.742188 131.507812 C 135.933594 131.507812 136.117188 131.484375 136.300781 131.4375 C 136.484375 131.390625 136.65625 131.324219 136.824219 131.234375 C 136.988281 131.144531 137.140625 131.035156 137.28125 130.910156 C 137.421875 130.785156 137.542969 130.644531 137.648438 130.488281 C 137.753906 130.332031 137.839844 130.164062 137.90625 129.988281 C 137.96875 129.808594 138.011719 129.628906 138.03125 129.441406 C 138.054688 129.253906 138.050781 129.066406 138.023438 128.878906 C 138 128.691406 137.953125 128.511719 137.882812 128.335938 Z M 102.550781 69.980469 C 103.902344 70.5 105.1875 71.15625 106.402344 71.949219 C 107.046875 72.382812 107.664062 72.859375 108.25 73.378906 C 108.589844 73.660156 108.910156 73.960938 109.21875 74.28125 C 110.59375 75.667969 111.71875 77.234375 112.597656 78.980469 C 113.152344 80.066406 113.59375 81.195312 113.914062 82.371094 C 114.335938 83.851562 114.566406 85.363281 114.601562 86.902344 C 114.617188 87.078125 114.613281 87.253906 114.613281 87.429688 C 114.617188 89.972656 114.125 92.414062 113.136719 94.757812 C 112.632812 95.957031 112.003906 97.085938 111.253906 98.148438 C 110.648438 99.003906 109.976562 99.804688 109.242188 100.546875 C 108.582031 101.210938 107.878906 101.820312 107.128906 102.378906 C 106.378906 102.933594 105.589844 103.429688 104.761719 103.863281 C 103.9375 104.300781 103.082031 104.671875 102.199219 104.976562 C 101.316406 105.28125 100.417969 105.519531 99.496094 105.6875 C 98.578125 105.855469 97.652344 105.953125 96.71875 105.980469 C 95.785156 106.007812 94.855469 105.960938 93.929688 105.847656 C 93 105.734375 92.089844 105.546875 91.191406 105.292969 C 90.289062 105.039062 89.417969 104.71875 88.566406 104.332031 L 88.566406 104.089844 L 88.074219 104.089844 L 87.382812 103.738281 C 86.339844 103.167969 85.367188 102.503906 84.457031 101.742188 L 84.324219 101.628906 C 84.210938 101.527344 84.089844 101.433594 83.960938 101.347656 C 83.898438 101.257812 83.820312 101.175781 83.734375 101.105469 C 83.570312 100.953125 83.402344 100.804688 83.253906 100.636719 L 83.128906 100.53125 C 82.5625 99.964844 82.035156 99.359375 81.546875 98.71875 L 81.414062 98.507812 C 81.242188 98.289062 81.085938 98.070312 80.945312 97.851562 L 80.710938 97.5 C 80.648438 97.40625 80.585938 97.3125 80.523438 97.214844 L 80.429688 97.027344 C 80.140625 96.558594 79.875 96.074219 79.636719 95.578125 L 79.484375 95.25 C 79.40625 95.097656 79.332031 94.929688 79.269531 94.777344 L 79.042969 94.238281 C 79.003906 94.140625 78.964844 94.042969 78.917969 93.910156 L 78.628906 93.050781 C 78.542969 92.773438 78.464844 92.496094 78.378906 92.222656 C 78.367188 92.128906 78.34375 92.039062 78.308594 91.949219 L 78.160156 91.3125 C 78.136719 90.992188 78.082031 90.671875 77.996094 90.359375 L 77.976562 90.28125 L 77.886719 89.515625 C 77.867188 89.398438 77.855469 89.28125 77.851562 89.164062 C 77.832031 89.042969 77.828125 88.925781 77.820312 88.8125 L 77.800781 88.539062 C 77.789062 88.464844 77.789062 88.390625 77.789062 88.316406 C 77.773438 88.027344 77.757812 87.734375 77.757812 87.4375 C 77.757812 87.136719 77.773438 86.824219 77.789062 86.515625 L 77.859375 85.511719 C 77.863281 85.433594 77.871094 85.355469 77.882812 85.28125 L 78.390625 82.570312 C 78.4375 82.394531 78.484375 82.234375 78.554688 82.023438 L 78.835938 81.15625 C 78.863281 81.0625 78.902344 80.96875 78.945312 80.875 C 79.007812 80.699219 79.066406 80.535156 79.167969 80.304688 C 79.199219 80.210938 79.238281 80.125 79.28125 80.035156 C 79.339844 79.871094 79.410156 79.707031 79.492188 79.550781 L 79.628906 79.261719 C 79.710938 79.085938 79.804688 78.910156 79.894531 78.746094 L 79.972656 78.464844 L 80.042969 78.472656 C 80.101562 78.359375 80.171875 78.226562 80.320312 77.976562 C 80.375 77.882812 80.433594 77.789062 80.496094 77.695312 C 80.566406 77.589844 80.632812 77.476562 80.691406 77.363281 C 80.75 77.285156 80.804688 77.199219 80.867188 77.117188 L 81.257812 76.5625 C 81.34375 76.429688 81.449219 76.296875 81.59375 76.105469 C 81.648438 76.023438 81.71875 75.945312 81.863281 75.753906 C 81.964844 75.632812 82.058594 75.511719 82.179688 75.375 C 82.558594 74.945312 83.105469 74.351562 83.195312 74.265625 C 85.378906 72.183594 87.898438 70.65625 90.753906 69.683594 C 92.691406 69.152344 94.664062 68.914062 96.671875 68.964844 C 98.679688 69.019531 100.636719 69.363281 102.542969 69.996094 Z M 21.402344 106.007812 L 20.773438 105.992188 C 20.5 105.992188 20.226562 105.964844 19.960938 105.910156 C 19.691406 105.855469 19.429688 105.777344 19.179688 105.671875 C 18.925781 105.566406 18.683594 105.4375 18.457031 105.285156 C 18.230469 105.132812 18.019531 104.960938 17.828125 104.765625 C 17.632812 104.574219 17.460938 104.363281 17.308594 104.136719 C 17.15625 103.90625 17.027344 103.667969 16.921875 103.414062 C 16.816406 103.164062 16.738281 102.902344 16.683594 102.632812 C 16.628906 102.367188 16.601562 102.09375 16.601562 101.820312 L 16.601562 15.785156 C 16.601562 14.632812 17.011719 13.648438 17.832031 12.839844 C 18.644531 12.027344 19.625 11.617188 20.777344 11.609375 L 87.769531 11.609375 C 88.042969 11.609375 88.316406 11.636719 88.582031 11.691406 C 88.851562 11.746094 89.113281 11.824219 89.363281 11.929688 C 89.617188 12.035156 89.859375 12.164062 90.085938 12.316406 C 90.3125 12.46875 90.523438 12.640625 90.71875 12.835938 C 90.910156 13.027344 91.082031 13.238281 91.234375 13.464844 C 91.386719 13.691406 91.515625 13.933594 91.621094 14.1875 C 91.726562 14.4375 91.808594 14.699219 91.859375 14.96875 C 91.914062 15.234375 91.941406 15.507812 91.945312 15.78125 L 91.945312 64.59375 L 91.921875 64.59375 C 90.503906 64.855469 89.125 65.253906 87.78125 65.785156 L 87.636719 65.835938 C 87.375 65.941406 87.09375 66.0625 86.84375 66.1875 C 85.445312 66.804688 84.128906 67.5625 82.890625 68.460938 C 82.800781 68.496094 82.722656 68.550781 82.65625 68.617188 C 82.5 68.71875 82.355469 68.832031 82.207031 68.945312 L 81.679688 69.367188 C 81.558594 69.453125 81.449219 69.550781 81.351562 69.660156 C 81.246094 69.726562 81.148438 69.804688 81.0625 69.894531 C 80.886719 70.035156 80.71875 70.1875 80.5625 70.351562 C 80.476562 70.414062 80.398438 70.484375 80.328125 70.558594 C 80.183594 70.703125 80.042969 70.84375 79.859375 71.007812 C 79.738281 71.128906 79.617188 71.253906 79.496094 71.382812 L 74.054688 71.382812 C 73.746094 71.382812 73.453125 71.441406 73.167969 71.558594 C 72.882812 71.679688 72.628906 71.847656 72.414062 72.0625 C 72.195312 72.28125 72.027344 72.535156 71.910156 72.816406 C 71.789062 73.101562 71.730469 73.398438 71.730469 73.707031 L 71.730469 81.441406 C 71.730469 81.960938 71.886719 82.421875 72.199219 82.835938 C 72.511719 83.246094 72.917969 83.523438 73.414062 83.664062 C 73.394531 83.769531 73.371094 83.886719 73.347656 84.042969 L 73.316406 84.296875 C 73.300781 84.417969 73.285156 84.539062 73.277344 84.648438 L 73.15625 85.894531 C 73.15625 85.996094 73.144531 86.101562 73.125 86.285156 C 73.113281 86.515625 73.109375 86.757812 73.109375 87.050781 C 72.691406 87.234375 72.355469 87.519531 72.105469 87.90625 C 71.855469 88.289062 71.730469 88.710938 71.730469 89.167969 L 71.730469 96.902344 C 71.730469 97.210938 71.789062 97.507812 71.910156 97.792969 C 72.027344 98.078125 72.195312 98.328125 72.414062 98.542969 C 72.632812 98.761719 72.882812 98.929688 73.167969 99.046875 C 73.453125 99.164062 73.75 99.222656 74.054688 99.226562 L 76.308594 99.226562 L 77.210938 100.648438 C 77.246094 100.710938 77.289062 100.769531 77.40625 100.929688 L 77.78125 101.433594 L 77.902344 101.597656 C 78.507812 102.394531 79.164062 103.148438 79.871094 103.855469 C 80.636719 104.632812 81.457031 105.347656 82.332031 106.007812 Z M 90.316406 138.152344 L 34.09375 138.152344 L 34.09375 110.675781 L 58.578125 110.675781 L 58.578125 113.394531 L 42.910156 113.394531 C 42.597656 113.394531 42.296875 113.453125 42.007812 113.574219 C 41.722656 113.691406 41.464844 113.863281 41.246094 114.082031 C 41.027344 114.304688 40.855469 114.558594 40.738281 114.84375 C 40.617188 115.132812 40.558594 115.433594 40.558594 115.746094 C 40.558594 116.054688 40.617188 116.355469 40.738281 116.644531 C 40.855469 116.933594 41.027344 117.1875 41.246094 117.40625 C 41.464844 117.625 41.722656 117.796875 42.007812 117.914062 C 42.296875 118.035156 42.597656 118.09375 42.910156 118.09375 L 58.578125 118.09375 L 58.578125 124.316406 L 42.664062 124.316406 C 42.355469 124.316406 42.054688 124.375 41.765625 124.496094 C 41.476562 124.613281 41.222656 124.785156 41.003906 125.003906 C 40.785156 125.226562 40.613281 125.480469 40.496094 125.765625 C 40.375 126.054688 40.316406 126.355469 40.316406 126.667969 C 40.316406 126.976562 40.375 127.277344 40.496094 127.566406 C 40.613281 127.855469 40.785156 128.109375 41.003906 128.328125 C 41.222656 128.550781 41.476562 128.71875 41.765625 128.839844 C 42.054688 128.957031 42.355469 129.015625 42.664062 129.015625 L 58.578125 129.015625 L 58.578125 129.152344 C 58.5625 129.773438 58.769531 130.304688 59.207031 130.746094 C 59.230469 130.773438 59.257812 130.796875 59.28125 130.824219 C 59.304688 130.847656 59.3125 130.855469 59.328125 130.867188 C 59.769531 131.3125 60.304688 131.523438 60.929688 131.503906 L 90.3125 131.503906 Z M 133.210938 126.804688 L 63.28125 126.804688 L 63.28125 110.675781 L 87.769531 110.675781 C 88.472656 110.675781 89.167969 110.585938 89.847656 110.40625 C 90.226562 110.316406 90.601562 110.199219 90.960938 110.054688 C 92.875 110.503906 94.8125 110.707031 96.777344 110.65625 C 98.742188 110.609375 100.667969 110.3125 102.554688 109.769531 C 104.441406 109.226562 106.230469 108.453125 107.917969 107.449219 C 109.609375 106.445312 111.144531 105.246094 112.523438 103.847656 C 113.933594 102.441406 115.132812 100.871094 116.121094 99.144531 L 124.6875 99.144531 C 125.007812 99.15625 125.316406 99.101562 125.617188 98.984375 C 125.917969 98.867188 126.183594 98.695312 126.414062 98.472656 C 126.644531 98.246094 126.820312 97.984375 126.945312 97.691406 C 127.070312 97.394531 127.132812 97.085938 127.132812 96.761719 C 127.132812 96.441406 127.070312 96.132812 126.945312 95.835938 C 126.820312 95.539062 126.644531 95.277344 126.414062 95.054688 C 126.183594 94.828125 125.917969 94.660156 125.617188 94.542969 C 125.316406 94.425781 125.007812 94.371094 124.6875 94.378906 L 118.238281 94.378906 C 118.945312 92.113281 119.296875 89.792969 119.292969 87.417969 C 119.300781 85.160156 118.980469 82.949219 118.332031 80.785156 C 118.140625 80.109375 117.914062 79.445312 117.652344 78.789062 C 116.898438 76.917969 115.917969 75.167969 114.710938 73.546875 L 124.691406 73.546875 C 125.007812 73.546875 125.3125 73.484375 125.601562 73.363281 C 125.894531 73.242188 126.152344 73.070312 126.375 72.847656 C 126.601562 72.625 126.773438 72.367188 126.894531 72.074219 C 127.015625 71.78125 127.074219 71.476562 127.074219 71.164062 C 127.074219 70.847656 127.015625 70.542969 126.894531 70.25 C 126.773438 69.957031 126.601562 69.699219 126.375 69.476562 C 126.152344 69.253906 125.894531 69.082031 125.601562 68.960938 C 125.3125 68.839844 125.007812 68.777344 124.691406 68.777344 L 109.992188 68.777344 C 108.035156 67.304688 105.898438 66.175781 103.582031 65.386719 L 116.039062 65.386719 C 116.355469 65.386719 116.660156 65.328125 116.953125 65.207031 C 117.246094 65.085938 117.503906 64.914062 117.726562 64.6875 C 117.949219 64.464844 118.121094 64.207031 118.242188 63.914062 C 118.363281 63.625 118.425781 63.320312 118.425781 63.003906 C 118.425781 62.6875 118.363281 62.382812 118.242188 62.089844 C 118.121094 61.800781 117.949219 61.542969 117.726562 61.316406 C 117.503906 61.09375 117.246094 60.921875 116.953125 60.800781 C 116.660156 60.679688 116.355469 60.621094 116.039062 60.621094 L 96.625 60.621094 L 96.625 57.226562 L 116.039062 57.226562 C 116.355469 57.226562 116.660156 57.164062 116.953125 57.042969 C 117.246094 56.921875 117.503906 56.75 117.726562 56.527344 C 117.949219 56.304688 118.121094 56.046875 118.242188 55.753906 C 118.363281 55.460938 118.425781 55.15625 118.425781 54.839844 C 118.425781 54.523438 118.363281 54.222656 118.242188 53.929688 C 118.121094 53.636719 117.949219 53.378906 117.726562 53.15625 C 117.503906 52.933594 117.246094 52.757812 116.953125 52.640625 C 116.660156 52.519531 116.355469 52.457031 116.039062 52.457031 L 96.625 52.457031 L 96.625 34.445312 L 133.191406 34.445312 L 133.191406 125.140625 L 133.214844 125.140625 Z M 34.488281 40.4375 L 26.5625 40.4375 C 26.253906 40.441406 25.957031 40.5 25.671875 40.621094 C 25.386719 40.738281 25.136719 40.910156 24.917969 41.128906 C 24.699219 41.347656 24.53125 41.601562 24.414062 41.886719 C 24.296875 42.171875 24.238281 42.46875 24.242188 42.78125 L 24.242188 50.503906 C 24.238281 50.8125 24.296875 51.109375 24.414062 51.394531 C 24.53125 51.679688 24.699219 51.933594 24.917969 52.152344 C 25.136719 52.371094 25.386719 52.542969 25.671875 52.664062 C 25.957031 52.78125 26.253906 52.84375 26.5625 52.84375 L 34.488281 52.84375 C 34.800781 52.84375 35.097656 52.785156 35.386719 52.664062 C 35.671875 52.546875 35.925781 52.375 36.144531 52.15625 C 36.363281 51.9375 36.53125 51.683594 36.652344 51.398438 C 36.769531 51.109375 36.832031 50.8125 36.832031 50.503906 L 36.832031 42.78125 C 36.832031 42.46875 36.769531 42.171875 36.652344 41.882812 C 36.53125 41.597656 36.363281 41.34375 36.144531 41.125 C 35.925781 40.90625 35.671875 40.734375 35.386719 40.617188 C 35.097656 40.5 34.800781 40.4375 34.488281 40.4375 Z M 32.144531 48.171875 L 28.90625 48.171875 L 28.90625 45.121094 L 32.152344 45.121094 Z M 66.148438 71.359375 L 58.226562 71.359375 C 57.917969 71.363281 57.617188 71.421875 57.332031 71.542969 C 57.046875 71.660156 56.796875 71.832031 56.578125 72.050781 C 56.359375 72.269531 56.191406 72.523438 56.074219 72.808594 C 55.957031 73.09375 55.898438 73.394531 55.898438 73.703125 L 55.898438 81.425781 C 55.898438 81.734375 55.957031 82.03125 56.074219 82.316406 C 56.191406 82.605469 56.359375 82.855469 56.578125 83.074219 C 56.796875 83.296875 57.046875 83.464844 57.332031 83.582031 C 57.621094 83.703125 57.917969 83.765625 58.226562 83.765625 L 66.148438 83.765625 C 66.457031 83.761719 66.753906 83.703125 67.039062 83.582031 C 67.324219 83.460938 67.574219 83.292969 67.792969 83.074219 C 68.011719 82.855469 68.179688 82.601562 68.296875 82.316406 C 68.414062 82.03125 68.472656 81.734375 68.472656 81.425781 L 68.472656 73.703125 C 68.472656 73.394531 68.414062 73.097656 68.296875 72.808594 C 68.179688 72.523438 68.011719 72.273438 67.792969 72.054688 C 67.574219 71.832031 67.324219 71.664062 67.039062 71.542969 C 66.753906 71.425781 66.457031 71.363281 66.148438 71.359375 Z M 63.808594 79.097656 L 60.566406 79.097656 L 60.566406 76.019531 L 63.808594 76.019531 Z M 50.316406 71.359375 L 42.394531 71.359375 C 42.085938 71.359375 41.785156 71.421875 41.5 71.539062 C 41.214844 71.660156 40.960938 71.828125 40.742188 72.046875 C 40.523438 72.269531 40.355469 72.519531 40.238281 72.808594 C 40.121094 73.09375 40.0625 73.390625 40.0625 73.703125 L 40.0625 81.425781 C 40.0625 81.734375 40.121094 82.03125 40.238281 82.316406 C 40.355469 82.605469 40.523438 82.855469 40.742188 83.074219 C 40.960938 83.296875 41.210938 83.464844 41.496094 83.582031 C 41.78125 83.703125 42.078125 83.765625 42.386719 83.765625 L 50.3125 83.765625 C 50.621094 83.761719 50.917969 83.703125 51.203125 83.582031 C 51.488281 83.464844 51.738281 83.296875 51.957031 83.074219 C 52.175781 82.855469 52.34375 82.605469 52.460938 82.316406 C 52.578125 82.03125 52.636719 81.734375 52.636719 81.425781 L 52.636719 73.703125 C 52.636719 73.394531 52.578125 73.097656 52.460938 72.8125 C 52.34375 72.523438 52.179688 72.273438 51.960938 72.054688 C 51.742188 71.832031 51.492188 71.664062 51.207031 71.542969 C 50.921875 71.425781 50.628906 71.363281 50.316406 71.359375 Z M 47.976562 79.097656 L 44.738281 79.097656 L 44.738281 76.019531 L 47.972656 76.019531 Z M 34.488281 71.359375 L 26.5625 71.359375 C 26.253906 71.363281 25.957031 71.421875 25.671875 71.542969 C 25.386719 71.660156 25.136719 71.832031 24.917969 72.050781 C 24.699219 72.269531 24.53125 72.523438 24.414062 72.808594 C 24.296875 73.09375 24.238281 73.394531 24.242188 73.703125 L 24.242188 81.425781 C 24.238281 81.734375 24.296875 82.03125 24.414062 82.316406 C 24.53125 82.605469 24.699219 82.855469 24.917969 83.074219 C 25.136719 83.296875 25.386719 83.464844 25.671875 83.582031 C 25.957031 83.703125 26.253906 83.761719 26.5625 83.765625 L 34.488281 83.765625 C 34.800781 83.765625 35.097656 83.707031 35.386719 83.585938 C 35.671875 83.46875 35.925781 83.296875 36.144531 83.078125 C 36.363281 82.859375 36.53125 82.605469 36.652344 82.320312 C 36.769531 82.035156 36.832031 81.734375 36.832031 81.425781 L 36.832031 73.703125 C 36.832031 73.390625 36.769531 73.09375 36.652344 72.804688 C 36.535156 72.519531 36.363281 72.265625 36.144531 72.046875 C 35.925781 71.828125 35.671875 71.660156 35.386719 71.539062 C 35.097656 71.421875 34.800781 71.359375 34.488281 71.359375 Z M 32.144531 79.097656 L 28.90625 79.097656 L 28.90625 76.019531 L 32.152344 76.019531 Z M 50.316406 55.890625 L 42.394531 55.890625 C 42.085938 55.890625 41.785156 55.953125 41.5 56.070312 C 41.210938 56.191406 40.960938 56.359375 40.742188 56.582031 C 40.523438 56.800781 40.355469 57.054688 40.234375 57.34375 C 40.117188 57.632812 40.0625 57.929688 40.0625 58.242188 L 40.0625 65.964844 C 40.0625 66.273438 40.121094 66.570312 40.238281 66.855469 C 40.355469 67.140625 40.523438 67.394531 40.742188 67.613281 C 40.960938 67.832031 41.210938 68.003906 41.496094 68.121094 C 41.78125 68.242188 42.078125 68.300781 42.386719 68.304688 L 50.3125 68.304688 C 50.621094 68.300781 50.917969 68.242188 51.203125 68.121094 C 51.488281 68.003906 51.738281 67.832031 51.957031 67.613281 C 52.175781 67.394531 52.34375 67.140625 52.460938 66.855469 C 52.578125 66.570312 52.636719 66.273438 52.636719 65.964844 L 52.636719 58.242188 C 52.636719 57.933594 52.578125 57.636719 52.460938 57.351562 C 52.34375 57.0625 52.175781 56.8125 51.960938 56.59375 C 51.742188 56.371094 51.492188 56.203125 51.207031 56.082031 C 50.921875 55.964844 50.625 55.902344 50.316406 55.898438 Z M 47.976562 63.625 L 44.738281 63.625 L 44.738281 60.582031 L 47.972656 60.582031 Z M 66.148438 86.820312 L 58.226562 86.820312 C 57.917969 86.820312 57.617188 86.882812 57.332031 87.003906 C 57.046875 87.121094 56.796875 87.292969 56.578125 87.511719 C 56.359375 87.730469 56.191406 87.984375 56.074219 88.269531 C 55.957031 88.554688 55.898438 88.855469 55.898438 89.164062 L 55.898438 96.886719 C 55.898438 97.195312 55.957031 97.492188 56.074219 97.777344 C 56.191406 98.0625 56.359375 98.316406 56.578125 98.535156 C 56.796875 98.753906 57.046875 98.925781 57.332031 99.042969 C 57.621094 99.164062 57.917969 99.222656 58.226562 99.226562 L 66.148438 99.226562 C 66.457031 99.222656 66.753906 99.160156 67.039062 99.042969 C 67.324219 98.921875 67.574219 98.753906 67.792969 98.53125 C 68.011719 98.3125 68.179688 98.0625 68.296875 97.773438 C 68.414062 97.488281 68.472656 97.191406 68.472656 96.882812 L 68.472656 89.164062 C 68.472656 88.855469 68.414062 88.558594 68.296875 88.273438 C 68.179688 87.984375 68.011719 87.734375 67.792969 87.515625 C 67.574219 87.292969 67.324219 87.125 67.039062 87.003906 C 66.753906 86.882812 66.457031 86.824219 66.148438 86.820312 Z M 63.808594 94.554688 L 60.566406 94.554688 L 60.566406 91.488281 L 63.808594 91.488281 Z M 50.316406 86.820312 L 42.394531 86.820312 C 42.085938 86.820312 41.785156 86.882812 41.5 87 C 41.214844 87.121094 40.960938 87.289062 40.742188 87.507812 C 40.523438 87.730469 40.355469 87.980469 40.238281 88.269531 C 40.121094 88.554688 40.0625 88.855469 40.0625 89.164062 L 40.0625 96.886719 C 40.0625 97.195312 40.121094 97.492188 40.238281 97.777344 C 40.355469 98.066406 40.523438 98.320312 40.742188 98.539062 C 40.960938 98.757812 41.214844 98.925781 41.5 99.046875 C 41.789062 99.164062 42.085938 99.222656 42.394531 99.226562 L 50.316406 99.226562 C 50.628906 99.222656 50.925781 99.164062 51.210938 99.042969 C 51.496094 98.921875 51.746094 98.753906 51.964844 98.535156 C 52.183594 98.316406 52.351562 98.0625 52.46875 97.777344 C 52.585938 97.488281 52.644531 97.191406 52.644531 96.882812 L 52.644531 89.164062 C 52.644531 88.855469 52.585938 88.554688 52.46875 88.269531 C 52.351562 87.984375 52.183594 87.730469 51.964844 87.511719 C 51.746094 87.292969 51.496094 87.121094 51.210938 87.003906 C 50.925781 86.882812 50.628906 86.820312 50.316406 86.820312 Z M 47.976562 94.554688 L 44.738281 94.554688 L 44.738281 91.488281 L 47.972656 91.488281 Z M 66.148438 55.898438 L 58.226562 55.898438 C 57.917969 55.902344 57.617188 55.960938 57.332031 56.082031 C 57.046875 56.199219 56.796875 56.371094 56.578125 56.589844 C 56.359375 56.808594 56.191406 57.0625 56.074219 57.347656 C 55.957031 57.632812 55.898438 57.933594 55.898438 58.242188 L 55.898438 65.964844 C 55.898438 66.273438 55.957031 66.570312 56.074219 66.855469 C 56.191406 67.140625 56.359375 67.394531 56.578125 67.613281 C 56.796875 67.832031 57.046875 68.003906 57.332031 68.121094 C 57.621094 68.242188 57.917969 68.300781 58.226562 68.304688 L 66.148438 68.304688 C 66.457031 68.300781 66.753906 68.242188 67.039062 68.121094 C 67.324219 68 67.574219 67.832031 67.792969 67.613281 C 68.011719 67.394531 68.179688 67.140625 68.296875 66.855469 C 68.414062 66.570312 68.472656 66.273438 68.472656 65.964844 L 68.472656 58.242188 C 68.476562 57.933594 68.417969 57.632812 68.296875 57.347656 C 68.179688 57.0625 68.011719 56.808594 67.796875 56.589844 C 67.578125 56.371094 67.324219 56.199219 67.039062 56.082031 C 66.753906 55.960938 66.457031 55.902344 66.148438 55.898438 Z M 63.808594 63.632812 L 60.566406 63.632812 L 60.566406 60.582031 L 63.808594 60.582031 Z M 34.488281 55.898438 L 26.5625 55.898438 C 26.253906 55.902344 25.957031 55.960938 25.671875 56.082031 C 25.386719 56.199219 25.136719 56.371094 24.917969 56.589844 C 24.699219 56.808594 24.53125 57.0625 24.414062 57.347656 C 24.296875 57.632812 24.238281 57.933594 24.242188 58.242188 L 24.242188 65.964844 C 24.238281 66.273438 24.296875 66.570312 24.414062 66.855469 C 24.53125 67.140625 24.699219 67.394531 24.917969 67.613281 C 25.136719 67.832031 25.386719 68.003906 25.671875 68.121094 C 25.957031 68.242188 26.253906 68.300781 26.5625 68.304688 L 34.488281 68.304688 C 34.800781 68.304688 35.097656 68.242188 35.386719 68.125 C 35.671875 68.007812 35.925781 67.835938 36.144531 67.617188 C 36.363281 67.398438 36.53125 67.144531 36.652344 66.859375 C 36.769531 66.574219 36.832031 66.273438 36.832031 65.964844 L 36.832031 58.242188 C 36.832031 57.929688 36.769531 57.632812 36.652344 57.34375 C 36.53125 57.058594 36.363281 56.804688 36.144531 56.585938 C 35.925781 56.367188 35.671875 56.199219 35.386719 56.078125 C 35.097656 55.960938 34.800781 55.898438 34.488281 55.898438 Z M 32.144531 63.632812 L 28.90625 63.632812 L 28.90625 60.582031 L 32.152344 60.582031 Z M 66.148438 40.429688 L 58.226562 40.429688 C 57.917969 40.429688 57.617188 40.492188 57.332031 40.609375 C 57.046875 40.730469 56.796875 40.898438 56.578125 41.121094 C 56.359375 41.339844 56.191406 41.589844 56.074219 41.878906 C 55.957031 42.164062 55.898438 42.460938 55.898438 42.769531 L 55.898438 50.546875 C 55.902344 50.851562 55.960938 51.148438 56.082031 51.429688 C 56.203125 51.710938 56.371094 51.960938 56.585938 52.175781 C 56.804688 52.390625 57.058594 52.558594 57.339844 52.671875 C 57.625 52.789062 57.917969 52.84375 58.226562 52.84375 L 66.148438 52.84375 C 66.457031 52.84375 66.753906 52.78125 67.039062 52.664062 C 67.324219 52.542969 67.578125 52.375 67.796875 52.152344 C 68.011719 51.933594 68.179688 51.679688 68.296875 51.394531 C 68.417969 51.109375 68.476562 50.8125 68.472656 50.503906 L 68.472656 42.78125 C 68.484375 42.195312 68.292969 41.6875 67.894531 41.253906 C 67.441406 40.707031 66.859375 40.433594 66.148438 40.4375 Z M 63.808594 48.164062 L 60.566406 48.164062 L 60.566406 45.121094 L 63.808594 45.121094 Z M 50.316406 40.429688 L 42.394531 40.429688 C 42.085938 40.429688 41.785156 40.488281 41.5 40.609375 C 41.210938 40.730469 40.960938 40.898438 40.742188 41.121094 C 40.523438 41.339844 40.355469 41.59375 40.234375 41.882812 C 40.117188 42.167969 40.0625 42.46875 40.0625 42.78125 L 40.0625 50.503906 C 40.0625 50.8125 40.121094 51.109375 40.238281 51.394531 C 40.355469 51.679688 40.523438 51.933594 40.742188 52.152344 C 40.960938 52.375 41.210938 52.542969 41.496094 52.664062 C 41.78125 52.78125 42.078125 52.84375 42.386719 52.84375 L 50.3125 52.84375 C 50.621094 52.847656 50.921875 52.789062 51.207031 52.667969 C 51.496094 52.550781 51.746094 52.382812 51.964844 52.160156 C 52.183594 51.941406 52.351562 51.6875 52.46875 51.398438 C 52.585938 51.113281 52.640625 50.8125 52.636719 50.503906 L 52.636719 42.78125 C 52.636719 42.472656 52.578125 42.171875 52.460938 41.886719 C 52.34375 41.601562 52.175781 41.351562 51.960938 41.128906 C 51.742188 40.910156 51.492188 40.742188 51.207031 40.621094 C 50.921875 40.5 50.625 40.441406 50.316406 40.4375 Z M 47.976562 48.164062 L 44.738281 48.164062 L 44.738281 45.121094 L 47.972656 45.121094 Z M 125.730469 118.933594 L 72.398438 118.933594 C 72.09375 118.921875 71.800781 118.851562 71.523438 118.730469 C 71.246094 118.605469 71.003906 118.433594 70.792969 118.214844 C 70.582031 117.996094 70.417969 117.742188 70.304688 117.460938 C 70.191406 117.179688 70.136719 116.886719 70.136719 116.582031 C 70.136719 116.277344 70.191406 115.984375 70.304688 115.703125 C 70.417969 115.421875 70.582031 115.171875 70.792969 114.953125 C 71.003906 114.734375 71.246094 114.5625 71.523438 114.4375 C 71.800781 114.3125 72.09375 114.246094 72.398438 114.234375 L 125.730469 114.234375 C 126.042969 114.234375 126.34375 114.292969 126.632812 114.410156 C 126.921875 114.53125 127.175781 114.703125 127.398438 114.921875 C 127.621094 115.144531 127.789062 115.398438 127.910156 115.6875 C 128.027344 115.976562 128.089844 116.277344 128.089844 116.589844 C 128.089844 116.902344 128.027344 117.203125 127.910156 117.492188 C 127.789062 117.78125 127.621094 118.035156 127.398438 118.253906 C 127.175781 118.476562 126.921875 118.648438 126.632812 118.765625 C 126.34375 118.886719 126.042969 118.945312 125.730469 118.945312 Z M 125.730469 118.933594 " fill-opacity="1" fill-rule="nonzero"/></g></svg>