<svg xmlns="http://www.w3.org/2000/svg" xmlns:xlink="http://www.w3.org/1999/xlink" width="1366" zoomAndPan="magnify" viewBox="0 0 1024.5 576" height="768" preserveAspectRatio="xMidYMid meet" version="1.0"><defs><clipPath id="ebda577ccb"><path d="M 14.265625 58 L 464.796875 58 L 464.796875 522.484375 L 14.265625 522.484375 Z M 14.265625 58 " clip-rule="nonzero"/></clipPath><clipPath id="31d647af2a"><path d="M 771 57.710938 L 785 57.710938 L 785 154 L 771 154 Z M 771 57.710938 " clip-rule="nonzero"/></clipPath><clipPath id="fe103fc646"><path d="M 524 301 L 988 301 L 988 517.988281 L 524 517.988281 Z M 524 301 " clip-rule="nonzero"/></clipPath></defs><path fill="#ff6d00" d="M 414.027344 353.140625 C 414.027344 352.160156 413.640625 351.222656 412.949219 350.535156 L 186.5625 124.40625 C 185.121094 122.96875 182.792969 122.96875 181.351562 124.40625 C 177.628906 128.128906 172.675781 130.179688 167.398438 130.179688 C 162.121094 130.179688 157.167969 128.125 153.441406 124.40625 C 152.003906 122.964844 149.675781 122.96875 148.234375 124.40625 L 62.65625 209.875 C 61.964844 210.570312 61.578125 211.503906 61.578125 212.480469 C 61.578125 213.460938 61.964844 214.394531 62.65625 215.089844 C 69.488281 221.921875 70.378906 232.585938 64.765625 240.441406 C 63.722656 241.910156 63.886719 243.917969 65.15625 245.191406 L 251.867188 431.710938 C 251.867188 431.714844 251.867188 431.714844 251.871094 431.714844 L 292.027344 471.800781 C 293.300781 473.070312 295.296875 473.230469 296.753906 472.195312 C 304.652344 466.621094 315.332031 467.507812 322.164062 474.304688 C 322.878906 475.019531 323.820312 475.375 324.761719 475.375 C 325.703125 475.375 326.644531 475.015625 327.363281 474.300781 L 412.945312 388.832031 C 413.636719 388.140625 414.023438 387.207031 414.023438 386.226562 C 414.023438 385.25 413.636719 384.308594 412.945312 383.621094 C 405.261719 375.9375 405.261719 363.433594 412.945312 355.746094 C 413.640625 355.054688 414.027344 354.113281 414.027344 353.140625 Z M 301.988281 304.835938 C 301.988281 320.605469 295.84375 335.421875 284.695312 346.550781 C 284.691406 346.554688 284.691406 346.554688 284.6875 346.558594 C 273.558594 357.707031 258.742188 363.851562 242.972656 363.851562 C 227.210938 363.851562 212.378906 357.707031 201.230469 346.554688 C 178.234375 323.5625 178.234375 286.117188 201.230469 263.09375 C 212.742188 251.589844 227.859375 245.84375 242.972656 245.84375 C 258.085938 245.84375 273.199219 251.59375 284.691406 263.089844 C 295.84375 274.242188 301.988281 289.070312 301.988281 304.835938 Z M 301.988281 304.835938 " fill-opacity="1" fill-rule="nonzero"/><g clip-path="url(#ebda577ccb)"><path fill="#ff6d00" d="M 463.613281 124.96875 C 463.128906 124.121094 462.328125 123.496094 461.386719 123.238281 L 295.34375 77.585938 L 290.390625 60.730469 C 289.820312 58.78125 287.777344 57.65625 285.820312 58.230469 L 183.503906 88.230469 L 170.019531 74.742188 C 168.578125 73.304688 166.25 73.304688 164.808594 74.742188 L 138.007812 101.546875 L 94.46875 114.300781 C 93.527344 114.574219 92.742188 115.210938 92.269531 116.066406 C 91.800781 116.921875 91.695312 117.933594 91.964844 118.871094 L 98.460938 141.015625 L 15.71875 223.6875 C 15.023438 224.382812 14.636719 225.320312 14.636719 226.300781 C 14.636719 227.28125 15.023438 228.214844 15.71875 228.90625 L 169.308594 382.328125 L 187.828125 445.394531 C 187.828125 445.398438 187.832031 445.402344 187.832031 445.410156 L 202.164062 494.105469 C 202.636719 495.710938 204.101562 496.75 205.699219 496.75 C 206.039062 496.75 206.390625 496.703125 206.738281 496.605469 L 266.226562 479.132812 L 308.34375 521.203125 C 309.0625 521.921875 310.003906 522.28125 310.949219 522.28125 C 311.890625 522.28125 312.835938 521.921875 313.554688 521.207031 L 462.652344 372.296875 C 463.34375 371.601562 463.730469 370.667969 463.730469 369.6875 C 463.730469 368.707031 463.34375 367.769531 462.652344 367.078125 L 411.96875 316.449219 L 463.960938 127.773438 C 464.222656 126.824219 464.097656 125.820312 463.613281 124.96875 Z M 284.355469 66.335938 L 335.300781 239.847656 L 313.515625 218.085938 L 281.582031 109.429688 C 281.011719 107.480469 278.972656 106.367188 277.019531 106.933594 C 272.28125 108.316406 267.296875 107.773438 262.964844 105.414062 C 258.628906 103.050781 255.484375 99.15625 254.105469 94.4375 C 253.835938 93.503906 253.195312 92.710938 252.339844 92.238281 C 251.480469 91.769531 250.464844 91.65625 249.535156 91.9375 L 201.347656 106.070312 L 189.445312 94.167969 Z M 100.074219 120.339844 L 127.082031 112.425781 L 104.402344 135.085938 Z M 208.1875 488.488281 L 194.898438 443.332031 C 194.898438 443.328125 194.898438 443.324219 194.898438 443.320312 L 180.175781 393.171875 L 260.28125 473.191406 Z M 310.949219 513.386719 L 23.535156 226.300781 L 142.433594 107.507812 C 142.464844 107.476562 142.503906 107.46875 142.539062 107.441406 L 167.417969 82.5625 L 197.675781 112.820312 C 197.707031 112.851562 197.753906 112.863281 197.792969 112.894531 L 454.832031 369.683594 Z M 406.71875 307.800781 L 405.984375 310.464844 L 394.574219 299.066406 L 431.984375 163.320312 C 432.242188 162.378906 432.121094 161.371094 431.636719 160.519531 C 431.152344 159.671875 430.347656 159.046875 429.410156 158.789062 C 424.855469 157.535156 421.054688 154.582031 418.714844 150.464844 C 416.375 146.355469 415.773438 141.589844 417.027344 137.050781 C 417.285156 136.109375 417.164062 135.105469 416.675781 134.253906 C 416.195312 133.402344 415.394531 132.777344 414.453125 132.519531 L 307.910156 103.191406 C 306.066406 102.691406 304.195312 103.707031 303.527344 105.464844 L 297.78125 85.890625 L 455.878906 129.359375 Z M 406.71875 307.800781 " fill-opacity="1" fill-rule="nonzero"/></g><path fill="#ff6d00" d="M 266.941406 275.664062 L 260.472656 282.269531 C 257.894531 280.648438 254.929688 279.75 251.820312 279.75 C 247.546875 279.75 243.375 281.472656 240.375 284.476562 C 237.351562 287.5 235.613281 291.6875 235.613281 295.960938 C 235.613281 300.230469 237.351562 304.421875 240.375 307.445312 C 242.03125 309.097656 242.980469 311.371094 242.980469 313.679688 C 242.980469 316.019531 242.046875 318.25 240.359375 319.972656 C 237.066406 323.308594 231.132812 323.308594 227.847656 319.972656 C 226.175781 318.28125 225.261719 316.042969 225.261719 313.679688 C 225.261719 311.347656 226.195312 309.074219 227.828125 307.449219 C 229.269531 306.007812 229.269531 303.679688 227.832031 302.234375 C 226.390625 300.796875 224.058594 300.800781 222.617188 302.230469 C 219.617188 305.234375 217.890625 309.40625 217.890625 313.679688 C 217.890625 316.742188 218.773438 319.667969 220.351562 322.226562 L 213.769531 328.839844 C 212.332031 330.28125 212.339844 332.609375 213.78125 334.050781 C 214.5 334.765625 215.441406 335.125 216.382812 335.125 C 217.328125 335.125 218.273438 334.757812 218.992188 334.039062 L 225.550781 327.457031 C 228.085938 329.042969 231.011719 329.929688 234.105469 329.929688 C 238.484375 329.929688 242.570312 328.230469 245.609375 325.144531 C 248.667969 322.035156 250.351562 317.964844 250.351562 313.683594 C 250.351562 309.4375 248.613281 305.265625 245.589844 302.238281 C 243.933594 300.585938 242.984375 298.296875 242.984375 295.964844 C 242.984375 293.632812 243.933594 291.34375 245.59375 289.6875 C 248.863281 286.402344 254.691406 286.335938 258.179688 289.769531 C 261.554688 293.222656 261.519531 298.816406 258.101562 302.238281 C 256.660156 303.679688 256.660156 306.007812 258.101562 307.449219 C 259.539062 308.890625 261.867188 308.890625 263.308594 307.449219 C 268.652344 302.105469 269.441406 293.882812 265.625 287.550781 L 272.21875 280.820312 C 273.640625 279.363281 273.617188 277.03125 272.160156 275.609375 C 270.707031 274.1875 268.375 274.207031 266.941406 275.664062 Z M 266.941406 275.664062 " fill-opacity="1" fill-rule="nonzero"/><path fill="#10002b" d="M 647.824219 166.625 C 651.617188 166.625 654.328125 163.371094 654.328125 160.121094 L 654.328125 109.1875 C 654.328125 105.394531 651.078125 102.683594 647.824219 102.683594 C 644.574219 102.683594 641.324219 105.9375 641.324219 109.1875 L 641.324219 160.121094 C 640.78125 163.914062 644.035156 166.625 647.824219 166.625 Z M 647.824219 166.625 " fill-opacity="1" fill-rule="nonzero"/><path fill="#10002b" d="M 684.671875 141.15625 C 688.464844 141.15625 691.171875 137.90625 691.171875 134.65625 L 691.171875 72.34375 C 691.171875 68.550781 687.921875 65.839844 684.671875 65.839844 C 681.421875 65.839844 678.167969 69.089844 678.167969 72.34375 L 678.167969 134.65625 C 677.628906 138.449219 680.878906 141.15625 684.671875 141.15625 Z M 684.671875 141.15625 " fill-opacity="1" fill-rule="nonzero"/><path fill="#10002b" d="M 722.058594 141.15625 C 725.851562 141.15625 728.5625 137.90625 728.5625 134.65625 L 728.5625 102.683594 C 728.5625 98.894531 725.308594 96.183594 722.058594 96.183594 C 718.808594 96.183594 715.558594 99.433594 715.558594 102.683594 L 715.558594 134.65625 C 715.558594 138.449219 718.265625 141.15625 722.058594 141.15625 Z M 722.058594 141.15625 " fill-opacity="1" fill-rule="nonzero"/><g clip-path="url(#31d647af2a)"><path fill="#10002b" d="M 778.410156 153.078125 C 782.203125 153.078125 784.914062 149.824219 784.914062 146.574219 L 784.914062 64.214844 C 784.914062 60.421875 781.660156 57.710938 778.410156 57.710938 C 775.160156 57.710938 771.910156 60.964844 771.910156 64.214844 L 771.910156 146.03125 C 771.910156 150.367188 774.617188 153.078125 778.410156 153.078125 Z M 778.410156 153.078125 " fill-opacity="1" fill-rule="nonzero"/></g><path fill="#10002b" d="M 716.097656 316.171875 C 761.070312 316.171875 797.375 279.867188 797.375 234.894531 C 797.375 189.921875 761.070312 153.617188 716.097656 153.617188 C 671.125 153.617188 634.820312 189.921875 634.820312 234.894531 C 634.820312 279.867188 671.125 316.171875 716.097656 316.171875 Z M 687.378906 254.402344 C 687.378906 250.609375 690.632812 247.898438 693.882812 247.898438 C 697.132812 247.898438 700.386719 251.152344 700.386719 254.402344 L 700.386719 259.277344 C 700.386719 264.15625 704.179688 267.949219 709.054688 267.949219 L 721.515625 267.949219 C 726.394531 267.949219 730.1875 264.15625 730.1875 259.277344 L 730.1875 248.984375 C 730.1875 247.359375 729.644531 244.648438 725.851562 243.023438 L 699.84375 238.6875 C 691.714844 235.980469 686.296875 228.394531 686.296875 220.265625 L 686.296875 209.429688 C 686.296875 197.507812 696.050781 187.753906 707.972656 187.214844 L 707.972656 182.335938 C 707.972656 178.542969 711.222656 175.835938 714.472656 175.835938 C 717.722656 175.835938 720.976562 179.085938 720.976562 182.335938 L 720.976562 186.671875 C 732.894531 187.214844 742.648438 196.964844 742.648438 208.886719 L 742.648438 213.765625 C 742.648438 217.558594 739.398438 220.265625 736.148438 220.265625 C 732.894531 220.265625 729.644531 217.015625 729.644531 213.765625 L 729.644531 208.886719 C 729.644531 204.011719 725.851562 200.21875 720.976562 199.675781 L 708.511719 199.675781 C 703.636719 199.675781 699.84375 203.46875 699.84375 208.34375 L 699.84375 219.183594 C 699.84375 221.347656 701.46875 223.515625 703.636719 224.601562 L 730.1875 229.476562 C 738.3125 232.1875 743.734375 239.773438 743.191406 248.441406 L 743.191406 258.738281 C 743.191406 270.65625 733.4375 280.410156 721.515625 280.953125 L 721.515625 286.371094 C 721.515625 290.164062 718.265625 292.875 715.015625 292.875 C 711.765625 292.875 708.511719 289.621094 708.511719 286.371094 L 708.511719 280.953125 C 696.59375 280.410156 686.839844 270.65625 686.839844 258.738281 Z M 687.378906 254.402344 " fill-opacity="1" fill-rule="nonzero"/><path fill="#10002b" d="M 919.832031 473.847656 C 919.832031 477.640625 923.082031 480.894531 926.875 480.894531 C 930.667969 480.894531 933.921875 477.640625 933.921875 473.847656 C 933.921875 470.054688 930.667969 466.804688 926.875 466.804688 C 923.082031 467.347656 919.832031 470.054688 919.832031 473.847656 Z M 919.832031 473.847656 " fill-opacity="1" fill-rule="nonzero"/><g clip-path="url(#fe103fc646)"><path fill="#10002b" d="M 981.601562 505.277344 L 895.992188 505.277344 L 895.992188 355.726562 L 967.515625 355.726562 C 971.308594 355.726562 974.015625 352.476562 974.015625 349.226562 C 974.015625 345.972656 970.765625 342.722656 967.515625 342.722656 L 895.992188 342.722656 L 895.992188 321.050781 C 895.992188 317.257812 892.738281 314.546875 889.488281 314.546875 C 886.238281 314.546875 882.988281 317.796875 882.988281 321.050781 L 882.988281 342.722656 L 843.972656 342.722656 C 840.179688 342.722656 837.472656 345.433594 837.472656 349.226562 L 837.472656 368.730469 L 825.007812 368.730469 L 785.453125 334.054688 C 784.371094 332.96875 782.746094 332.429688 781.121094 332.429688 L 673.292969 332.429688 C 670.042969 332.429688 666.789062 335.136719 666.789062 338.386719 C 666.789062 338.929688 666.25 342.722656 666.25 342.722656 C 666.25 352.476562 669.5 361.6875 674.917969 369.273438 L 667.332031 369.273438 C 667.332031 369.273438 637.53125 323.214844 636.449219 321.589844 C 626.695312 307.503906 609.898438 297.75 593.101562 303.167969 L 582.261719 306.960938 C 579.011719 308.585938 576.84375 312.378906 578.46875 315.628906 C 578.46875 315.628906 581.179688 320.507812 581.179688 320.507812 C 566.007812 312.378906 546.5 311.296875 534.039062 323.757812 L 525.910156 332.429688 C 523.742188 335.679688 524.285156 340.011719 526.996094 342.179688 L 623.984375 408.828125 C 623.984375 408.828125 776.242188 465.722656 776.242188 465.722656 C 777.328125 465.722656 836.929688 465.722656 836.929688 465.722656 L 836.929688 476.558594 C 836.929688 480.351562 839.640625 483.0625 843.433594 483.0625 L 881.902344 483.0625 L 881.902344 511.777344 C 881.902344 515.570312 885.152344 518.28125 888.40625 518.28125 L 980.519531 518.28125 C 984.3125 518.28125 987.019531 515.03125 987.019531 511.777344 C 987.019531 508.527344 984.855469 505.277344 981.601562 505.277344 Z M 596.894531 315.628906 C 608.8125 311.835938 621.816406 321.589844 627.777344 333.511719 L 642.40625 356.269531 L 603.394531 333.511719 L 593.640625 316.714844 Z M 837.472656 452.175781 L 780.035156 452.175781 L 630.488281 396.90625 L 541.082031 335.136719 L 543.25 332.96875 C 552.460938 323.757812 568.175781 327.007812 579.011719 334.59375 L 636.988281 368.191406 L 659.746094 381.734375 C 660.832031 382.277344 661.914062 382.820312 662.996094 382.820312 L 759.988281 382.820312 C 763.78125 382.820312 766.488281 379.566406 766.488281 376.316406 C 766.488281 372.523438 763.238281 369.816406 759.988281 369.816406 L 698.21875 369.816406 C 687.921875 368.191406 680.335938 356.8125 679.253906 346.515625 L 777.867188 346.515625 L 817.421875 381.195312 C 818.507812 382.277344 820.132812 382.820312 821.757812 382.820312 L 836.929688 382.820312 Z M 837.472656 452.175781 " fill-opacity="1" fill-rule="nonzero"/></g></svg>