<svg xmlns="http://www.w3.org/2000/svg" xmlns:xlink="http://www.w3.org/1999/xlink" width="1366" zoomAndPan="magnify" viewBox="0 0 1024.5 576" height="768" preserveAspectRatio="xMidYMid meet" version="1.0"><defs><clipPath id="4aed6716a5"><path d="M 530 27.226562 L 546 27.226562 L 546 136 L 530 136 Z M 530 27.226562 " clip-rule="nonzero"/></clipPath><clipPath id="5503a4c6c0"><path d="M 250 303 L 775 303 L 775 548.972656 L 250 548.972656 Z M 250 303 " clip-rule="nonzero"/></clipPath></defs><path fill="#10002b" d="M 390.203125 150.554688 C 394.496094 150.554688 397.5625 146.875 397.5625 143.191406 L 397.5625 85.515625 C 397.5625 81.222656 393.882812 78.152344 390.203125 78.152344 C 386.519531 78.152344 382.839844 81.835938 382.839844 85.515625 L 382.839844 143.191406 C 382.226562 147.488281 385.90625 150.554688 390.203125 150.554688 Z M 390.203125 150.554688 " fill-opacity="1" fill-rule="nonzero"/><path fill="#10002b" d="M 431.925781 121.71875 C 436.21875 121.71875 439.285156 118.035156 439.285156 114.355469 L 439.285156 43.792969 C 439.285156 39.5 435.605469 36.429688 431.925781 36.429688 C 428.242188 36.429688 424.5625 40.113281 424.5625 43.792969 L 424.5625 114.355469 C 423.949219 118.648438 427.628906 121.71875 431.925781 121.71875 Z M 431.925781 121.71875 " fill-opacity="1" fill-rule="nonzero"/><path fill="#10002b" d="M 474.261719 121.71875 C 478.554688 121.71875 481.625 118.035156 481.625 114.355469 L 481.625 78.152344 C 481.625 73.859375 477.941406 70.792969 474.261719 70.792969 C 470.578125 70.792969 466.898438 74.472656 466.898438 78.152344 L 466.898438 114.355469 C 466.898438 118.648438 469.964844 121.71875 474.261719 121.71875 Z M 474.261719 121.71875 " fill-opacity="1" fill-rule="nonzero"/><g clip-path="url(#4aed6716a5)"><path fill="#10002b" d="M 538.070312 135.214844 C 542.367188 135.214844 545.433594 131.535156 545.433594 127.851562 L 545.433594 34.589844 C 545.433594 30.296875 541.753906 27.226562 538.070312 27.226562 C 534.390625 27.226562 530.707031 30.910156 530.707031 34.589844 L 530.707031 127.238281 C 530.707031 132.148438 533.777344 135.214844 538.070312 135.214844 Z M 538.070312 135.214844 " fill-opacity="1" fill-rule="nonzero"/></g><path fill="#10002b" d="M 467.511719 319.902344 C 518.4375 319.902344 559.546875 278.792969 559.546875 227.863281 C 559.546875 176.9375 518.4375 135.828125 467.511719 135.828125 C 416.585938 135.828125 375.476562 176.9375 375.476562 227.863281 C 375.476562 278.792969 416.585938 319.902344 467.511719 319.902344 Z M 434.992188 249.953125 C 434.992188 245.660156 438.671875 242.589844 442.355469 242.589844 C 446.035156 242.589844 449.71875 246.273438 449.71875 249.953125 L 449.71875 255.476562 C 449.71875 260.996094 454.011719 265.292969 459.535156 265.292969 L 473.648438 265.292969 C 479.167969 265.292969 483.464844 260.996094 483.464844 255.476562 L 483.464844 243.816406 C 483.464844 241.976562 482.851562 238.910156 478.554688 237.070312 L 449.105469 232.160156 C 439.898438 229.09375 433.765625 220.503906 433.765625 211.296875 L 433.765625 199.027344 C 433.765625 185.527344 444.808594 174.484375 458.308594 173.871094 L 458.308594 168.347656 C 458.308594 164.054688 461.988281 160.984375 465.671875 160.984375 C 469.351562 160.984375 473.03125 164.667969 473.03125 168.347656 L 473.03125 173.257812 C 486.53125 173.871094 497.574219 184.914062 497.574219 198.414062 L 497.574219 203.9375 C 497.574219 208.230469 493.894531 211.296875 490.214844 211.296875 C 486.53125 211.296875 482.851562 207.617188 482.851562 203.9375 L 482.851562 198.414062 C 482.851562 192.890625 478.554688 188.597656 473.03125 187.984375 L 458.921875 187.984375 C 453.398438 187.984375 449.105469 192.277344 449.105469 197.800781 L 449.105469 210.070312 C 449.105469 212.527344 450.945312 214.980469 453.398438 216.207031 L 483.464844 221.730469 C 492.667969 224.796875 498.804688 233.386719 498.191406 243.203125 L 498.191406 254.863281 C 498.191406 268.359375 487.144531 279.40625 473.648438 280.019531 L 473.648438 286.152344 C 473.648438 290.449219 469.964844 293.515625 466.285156 293.515625 C 462.601562 293.515625 458.921875 289.835938 458.921875 286.152344 L 458.921875 280.019531 C 445.421875 279.40625 434.378906 268.359375 434.378906 254.863281 Z M 434.992188 249.953125 " fill-opacity="1" fill-rule="nonzero"/><path fill="#10002b" d="M 698.214844 498.449219 C 698.214844 502.746094 701.894531 506.425781 706.191406 506.425781 C 710.484375 506.425781 714.167969 502.746094 714.167969 498.449219 C 714.167969 494.15625 710.484375 490.472656 706.191406 490.472656 C 701.894531 491.085938 698.214844 494.15625 698.214844 498.449219 Z M 698.214844 498.449219 " fill-opacity="1" fill-rule="nonzero"/><g clip-path="url(#5503a4c6c0)"><path fill="#10002b" d="M 768.160156 534.035156 L 671.214844 534.035156 L 671.214844 364.691406 L 752.207031 364.691406 C 756.503906 364.691406 759.570312 361.007812 759.570312 357.328125 C 759.570312 353.648438 755.890625 349.964844 752.207031 349.964844 L 671.214844 349.964844 L 671.214844 325.421875 C 671.214844 321.128906 667.535156 318.058594 663.851562 318.058594 C 660.171875 318.058594 656.492188 321.742188 656.492188 325.421875 L 656.492188 349.964844 L 612.3125 349.964844 C 608.019531 349.964844 604.949219 353.03125 604.949219 357.328125 L 604.949219 379.417969 L 590.839844 379.417969 L 546.046875 340.148438 C 544.820312 338.921875 542.980469 338.308594 541.140625 338.308594 L 419.039062 338.308594 C 415.359375 338.308594 411.675781 341.375 411.675781 345.058594 C 411.675781 345.671875 411.0625 349.964844 411.0625 349.964844 C 411.0625 361.007812 414.742188 371.441406 420.878906 380.03125 L 412.289062 380.03125 C 412.289062 380.03125 378.542969 327.875 377.316406 326.035156 C 366.273438 310.082031 347.25 299.039062 328.230469 305.175781 L 315.960938 309.46875 C 312.277344 311.308594 309.824219 315.605469 311.664062 319.285156 C 311.664062 319.285156 314.730469 324.808594 314.730469 324.808594 C 297.550781 315.605469 275.464844 314.378906 261.351562 328.492188 L 252.148438 338.308594 C 249.695312 341.988281 250.308594 346.898438 253.375 349.351562 L 363.203125 424.820312 C 363.203125 424.820312 535.617188 489.246094 535.617188 489.246094 C 536.84375 489.246094 604.335938 489.246094 604.335938 489.246094 L 604.335938 501.515625 C 604.335938 505.8125 607.40625 508.878906 611.699219 508.878906 L 655.261719 508.878906 L 655.261719 541.398438 C 655.261719 545.695312 658.945312 548.761719 662.625 548.761719 L 766.933594 548.761719 C 771.226562 548.761719 774.296875 545.082031 774.296875 541.398438 C 774.296875 537.71875 771.839844 534.035156 768.160156 534.035156 Z M 332.527344 319.285156 C 346.023438 314.992188 360.75 326.035156 367.5 339.535156 L 384.066406 365.304688 L 339.886719 339.535156 L 328.84375 320.515625 Z M 604.949219 473.90625 L 539.914062 473.90625 L 370.566406 411.324219 L 269.328125 341.375 L 271.78125 338.921875 C 282.210938 328.492188 300.007812 332.171875 312.277344 340.761719 L 377.929688 378.804688 L 403.699219 394.140625 C 404.925781 394.757812 406.152344 395.371094 407.382812 395.371094 L 517.210938 395.371094 C 521.503906 395.371094 524.574219 391.6875 524.574219 388.007812 C 524.574219 383.710938 520.890625 380.644531 517.210938 380.644531 L 447.261719 380.644531 C 435.605469 378.804688 427.015625 365.917969 425.789062 354.261719 L 537.457031 354.261719 L 582.25 393.527344 C 583.476562 394.757812 585.316406 395.371094 587.15625 395.371094 L 604.335938 395.371094 Z M 604.949219 473.90625 " fill-opacity="1" fill-rule="nonzero"/></g></svg>