<svg xmlns="http://www.w3.org/2000/svg" xmlns:xlink="http://www.w3.org/1999/xlink" width="1366" zoomAndPan="magnify" viewBox="0 0 1024.5 576" height="768" preserveAspectRatio="xMidYMid meet" version="1.0"><defs><clipPath id="38631d61c9"><path d="M 261 29 L 763 29 L 763 546.921875 L 261 546.921875 Z M 261 29 " clip-rule="nonzero"/></clipPath></defs><path fill="#ff6d00" d="M 706.800781 358.421875 C 706.800781 357.328125 706.371094 356.285156 705.597656 355.519531 L 453.105469 103.3125 C 451.496094 101.707031 448.902344 101.707031 447.292969 103.3125 C 443.140625 107.464844 437.617188 109.75 431.730469 109.75 C 425.84375 109.75 420.320312 107.460938 416.164062 103.3125 C 414.558594 101.703125 411.960938 101.707031 410.355469 103.3125 L 314.90625 198.636719 C 314.136719 199.410156 313.703125 200.453125 313.703125 201.542969 C 313.703125 202.636719 314.136719 203.679688 314.90625 204.453125 C 322.527344 212.074219 323.519531 223.964844 317.261719 232.730469 C 316.09375 234.367188 316.28125 236.605469 317.699219 238.027344 L 525.9375 446.058594 C 525.9375 446.0625 525.9375 446.0625 525.941406 446.0625 L 570.730469 490.769531 C 572.152344 492.183594 574.378906 492.367188 576.003906 491.210938 C 584.8125 484.992188 596.722656 485.980469 604.339844 493.5625 C 605.140625 494.359375 606.191406 494.757812 607.238281 494.757812 C 608.289062 494.757812 609.34375 494.355469 610.144531 493.558594 L 705.59375 398.234375 C 706.367188 397.460938 706.796875 396.417969 706.796875 395.324219 C 706.796875 394.234375 706.367188 393.1875 705.59375 392.421875 C 697.023438 383.847656 697.023438 369.902344 705.59375 361.332031 C 706.371094 360.558594 706.800781 359.511719 706.800781 358.421875 Z M 581.839844 304.550781 C 581.839844 322.136719 574.988281 338.664062 562.554688 351.074219 C 562.550781 351.078125 562.550781 351.078125 562.546875 351.085938 C 550.132812 363.519531 533.605469 370.371094 516.019531 370.371094 C 498.4375 370.371094 481.898438 363.519531 469.460938 351.078125 C 443.8125 325.4375 443.8125 283.671875 469.460938 257.992188 C 482.300781 245.164062 499.164062 238.753906 516.019531 238.753906 C 532.875 238.753906 549.730469 245.167969 562.550781 257.988281 C 574.988281 270.429688 581.839844 286.964844 581.839844 304.550781 Z M 581.839844 304.550781 " fill-opacity="1" fill-rule="nonzero"/><g clip-path="url(#38631d61c9)"><path fill="#ff6d00" d="M 762.105469 103.9375 C 761.566406 102.996094 760.671875 102.296875 759.621094 102.007812 L 574.429688 51.089844 L 568.90625 32.292969 C 568.269531 30.117188 565.992188 28.863281 563.808594 29.503906 L 449.695312 62.964844 L 434.652344 47.921875 C 433.042969 46.316406 430.445312 46.316406 428.839844 47.921875 L 398.949219 77.816406 L 350.386719 92.039062 C 349.339844 92.34375 348.460938 93.054688 347.933594 94.011719 C 347.414062 94.964844 347.292969 96.089844 347.597656 97.140625 L 354.84375 121.835938 L 262.554688 214.042969 C 261.78125 214.820312 261.351562 215.863281 261.351562 216.957031 C 261.351562 218.046875 261.78125 219.09375 262.554688 219.863281 L 433.863281 390.976562 L 454.511719 461.320312 C 454.511719 461.324219 454.515625 461.328125 454.519531 461.335938 L 470.503906 515.648438 C 471.03125 517.4375 472.667969 518.597656 474.445312 518.597656 C 474.828125 518.597656 475.21875 518.542969 475.605469 518.433594 L 541.957031 498.949219 L 588.929688 545.867188 C 589.730469 546.667969 590.78125 547.074219 591.835938 547.074219 C 592.886719 547.074219 593.9375 546.667969 594.738281 545.871094 L 761.03125 379.789062 C 761.804688 379.015625 762.234375 377.972656 762.234375 376.878906 C 762.234375 375.785156 761.804688 374.738281 761.03125 373.972656 L 704.503906 317.5 L 762.496094 107.066406 C 762.78125 106.011719 762.648438 104.886719 762.105469 103.9375 Z M 562.175781 38.546875 L 618.996094 232.070312 L 594.699219 207.796875 L 559.082031 86.609375 C 558.445312 84.433594 556.171875 83.191406 553.992188 83.820312 C 548.707031 85.367188 543.148438 84.761719 538.316406 82.128906 C 533.484375 79.496094 529.972656 75.148438 528.4375 69.886719 C 528.132812 68.84375 527.421875 67.960938 526.464844 67.433594 C 525.507812 66.910156 524.375 66.785156 523.339844 67.097656 L 469.59375 82.859375 L 456.316406 69.585938 Z M 356.640625 98.773438 L 386.765625 89.949219 L 361.46875 115.222656 Z M 477.222656 509.382812 L 462.402344 459.019531 C 462.402344 459.015625 462.402344 459.007812 462.402344 459.003906 L 445.980469 403.074219 L 535.324219 492.320312 Z M 591.835938 537.148438 L 271.273438 216.957031 L 403.886719 84.464844 C 403.917969 84.429688 403.964844 84.421875 404 84.390625 L 431.75 56.640625 L 465.496094 90.386719 C 465.535156 90.425781 465.585938 90.4375 465.628906 90.472656 L 752.3125 376.875 Z M 698.648438 307.859375 L 697.828125 310.828125 L 685.101562 298.117188 L 726.828125 146.714844 C 727.117188 145.660156 726.980469 144.539062 726.4375 143.589844 C 725.902344 142.644531 725.003906 141.945312 723.957031 141.660156 C 718.878906 140.261719 714.636719 136.96875 712.027344 132.378906 C 709.417969 127.792969 708.75 122.480469 710.148438 117.417969 C 710.433594 116.363281 710.300781 115.242188 709.757812 114.292969 C 709.21875 113.34375 708.328125 112.648438 707.273438 112.359375 L 588.445312 79.652344 C 586.390625 79.09375 584.300781 80.226562 583.558594 82.1875 L 577.148438 60.355469 L 753.480469 108.835938 Z M 698.648438 307.859375 " fill-opacity="1" fill-rule="nonzero"/></g><path fill="#ff6d00" d="M 542.753906 272.011719 L 535.539062 279.378906 C 532.660156 277.570312 529.355469 276.570312 525.886719 276.570312 C 521.121094 276.570312 516.46875 278.492188 513.125 281.839844 C 509.75 285.214844 507.808594 289.886719 507.808594 294.652344 C 507.808594 299.414062 509.75 304.085938 513.125 307.460938 C 514.96875 309.304688 516.027344 311.839844 516.027344 314.410156 C 516.027344 317.019531 514.988281 319.511719 513.101562 321.429688 C 509.433594 325.152344 502.8125 325.152344 499.148438 321.429688 C 497.289062 319.542969 496.265625 317.050781 496.265625 314.410156 C 496.265625 311.8125 497.308594 309.277344 499.128906 307.464844 C 500.734375 305.855469 500.734375 303.261719 499.132812 301.648438 C 497.527344 300.042969 494.925781 300.046875 493.316406 301.644531 C 489.96875 304.992188 488.046875 309.644531 488.046875 314.410156 C 488.046875 317.832031 489.027344 321.09375 490.792969 323.945312 L 483.449219 331.320312 C 481.847656 332.929688 481.855469 335.527344 483.460938 337.132812 C 484.261719 337.929688 485.3125 338.328125 486.363281 338.328125 C 487.417969 338.328125 488.46875 337.921875 489.273438 337.121094 L 496.589844 329.777344 C 499.414062 331.546875 502.679688 332.535156 506.128906 332.535156 C 511.011719 332.535156 515.570312 330.640625 518.960938 327.199219 C 522.371094 323.730469 524.25 319.195312 524.25 314.414062 C 524.25 309.683594 522.3125 305.027344 518.9375 301.652344 C 517.09375 299.808594 516.03125 297.257812 516.03125 294.65625 C 516.03125 292.054688 517.09375 289.503906 518.941406 287.652344 C 522.589844 283.988281 529.089844 283.914062 532.980469 287.746094 C 536.746094 291.597656 536.703125 297.835938 532.890625 301.652344 C 531.285156 303.261719 531.285156 305.855469 532.890625 307.464844 C 534.496094 309.070312 537.09375 309.070312 538.703125 307.464844 C 544.660156 301.503906 545.539062 292.335938 541.285156 285.269531 L 548.636719 277.765625 C 550.222656 276.140625 550.199219 273.539062 548.570312 271.953125 C 546.953125 270.367188 544.351562 270.386719 542.753906 272.011719 Z M 542.753906 272.011719 " fill-opacity="1" fill-rule="nonzero"/></svg>