<svg xmlns="http://www.w3.org/2000/svg" xmlns:xlink="http://www.w3.org/1999/xlink" width="234" zoomAndPan="magnify" viewBox="0 0 175.5 49.499998" height="66" preserveAspectRatio="xMidYMid meet" version="1.0"><defs><g/></defs><g fill="#ff6d00" fill-opacity="1"><g transform="translate(20.39719, 33.772989)"><g><path d="M 15.71875 0.515625 C 12.5 0.515625 9.90625 0.171875 7.9375 -0.515625 C 5.96875 -1.210938 4.46875 -2.164062 3.4375 -3.375 C 2.414062 -4.582031 1.726562 -5.976562 1.375 -7.5625 L 11.96875 -7.5625 C 12.75 -6.4375 14 -5.875 15.71875 -5.875 C 17.425781 -5.875 18.675781 -6.4375 19.46875 -7.5625 C 19.53125 -7.664062 19.5625 -7.765625 19.5625 -7.859375 C 19.5625 -8.160156 19.164062 -8.382812 18.375 -8.53125 C 17.582031 -8.675781 16.40625 -8.789062 14.84375 -8.875 C 12.863281 -8.957031 10.785156 -9.164062 8.609375 -9.5 C 3.753906 -10.25 1.328125 -12.203125 1.328125 -15.359375 C 1.328125 -15.617188 1.34375 -15.898438 1.375 -16.203125 C 1.726562 -17.773438 2.414062 -19.164062 3.4375 -20.375 C 4.46875 -21.59375 5.96875 -22.546875 7.9375 -23.234375 C 9.90625 -23.921875 12.5 -24.265625 15.71875 -24.265625 C 18.9375 -24.265625 21.523438 -23.921875 23.484375 -23.234375 C 25.453125 -22.546875 26.953125 -21.59375 27.984375 -20.375 C 29.015625 -19.164062 29.707031 -17.773438 30.0625 -16.203125 L 19.46875 -16.203125 C 18.675781 -17.328125 17.425781 -17.890625 15.71875 -17.890625 C 14 -17.890625 12.75 -17.328125 11.96875 -16.203125 C 11.914062 -16.109375 11.890625 -16.023438 11.890625 -15.953125 C 11.890625 -15.679688 12.265625 -15.484375 13.015625 -15.359375 C 13.773438 -15.234375 14.890625 -15.125 16.359375 -15.03125 C 17.835938 -14.945312 19.410156 -14.804688 21.078125 -14.609375 C 22.753906 -14.410156 24.316406 -14.0625 25.765625 -13.5625 C 27.222656 -13.070312 28.359375 -12.347656 29.171875 -11.390625 C 29.816406 -10.648438 30.140625 -9.710938 30.140625 -8.578125 C 30.140625 -8.253906 30.113281 -7.914062 30.0625 -7.5625 C 29.707031 -5.976562 29.015625 -4.582031 27.984375 -3.375 C 26.953125 -2.164062 25.453125 -1.210938 23.484375 -0.515625 C 21.523438 0.171875 18.9375 0.515625 15.71875 0.515625 Z M 15.71875 0.515625 "/></g></g></g><g fill="#ff6d00" fill-opacity="1"><g transform="translate(51.860625, 33.772989)"><g/></g></g><g fill="#ff6d00" fill-opacity="1"><g transform="translate(60.280866, 33.772989)"><g/></g></g><g fill="#ff6d00" fill-opacity="1"><g transform="translate(68.701107, 33.772989)"><g/></g></g><g fill="#ff6d00" fill-opacity="1"><g transform="translate(77.121348, 33.772989)"><g/></g></g><g fill="#10002b" fill-opacity="1"><g transform="translate(85.55156, 33.772989)"><g><path d="M 22.84375 0 L 13.578125 0 L 0.25 -23.78125 L 10.359375 -23.78125 L 18.21875 -6.78125 L 26.0625 -23.78125 L 36.171875 -23.78125 Z M 22.84375 0 "/></g></g></g><g fill="#10002b" fill-opacity="1"><g transform="translate(121.967446, 33.772989)"><g><path d="M 31.296875 0 L 2.65625 0 L 2.65625 -23.796875 L 29.984375 -23.796875 L 29.984375 -17.90625 L 12.640625 -17.90625 L 12.640625 -14.171875 L 27.3125 -14.171875 L 27.3125 -9.59375 L 12.640625 -9.59375 L 12.640625 -5.890625 L 31.296875 -5.890625 Z M 31.296875 0 "/></g></g></g><g fill="#10002b" fill-opacity="1"><g transform="translate(88.983362, 9.889839)"><g><path d="M -22.84375 0 L -13.578125 0 L -0.25 23.78125 L -10.359375 23.78125 L -18.21875 6.78125 L -26.0625 23.78125 L -36.171875 23.78125 Z M -22.84375 0 "/></g></g></g></svg>