<svg xmlns="http://www.w3.org/2000/svg" xmlns:xlink="http://www.w3.org/1999/xlink" width="234" zoomAndPan="magnify" viewBox="0 0 175.5 49.499998" height="66" preserveAspectRatio="xMidYMid meet" version="1.0"><defs><g/></defs><g fill="#ffffff" fill-opacity="1"><g transform="translate(26.823237, 29.605754)"><g><path d="M 13.78125 0.453125 C 10.957031 0.453125 8.679688 0.148438 6.953125 -0.453125 C 5.234375 -1.054688 3.921875 -1.890625 3.015625 -2.953125 C 2.117188 -4.015625 1.515625 -5.238281 1.203125 -6.625 L 10.5 -6.625 C 11.1875 -5.632812 12.28125 -5.140625 13.78125 -5.140625 C 15.28125 -5.140625 16.375 -5.632812 17.0625 -6.625 C 17.125 -6.71875 17.15625 -6.804688 17.15625 -6.890625 C 17.15625 -7.148438 16.804688 -7.34375 16.109375 -7.46875 C 15.421875 -7.601562 14.390625 -7.707031 13.015625 -7.78125 C 11.273438 -7.851562 9.453125 -8.035156 7.546875 -8.328125 C 3.285156 -8.984375 1.15625 -10.691406 1.15625 -13.453125 C 1.15625 -13.691406 1.171875 -13.941406 1.203125 -14.203125 C 1.515625 -15.585938 2.117188 -16.8125 3.015625 -17.875 C 3.921875 -18.9375 5.234375 -19.769531 6.953125 -20.375 C 8.679688 -20.976562 10.957031 -21.28125 13.78125 -21.28125 C 16.59375 -21.28125 18.863281 -20.976562 20.59375 -20.375 C 22.320312 -19.769531 23.632812 -18.9375 24.53125 -17.875 C 25.4375 -16.8125 26.039062 -15.585938 26.34375 -14.203125 L 17.0625 -14.203125 C 16.375 -15.191406 15.28125 -15.6875 13.78125 -15.6875 C 12.28125 -15.6875 11.1875 -15.191406 10.5 -14.203125 C 10.445312 -14.117188 10.421875 -14.046875 10.421875 -13.984375 C 10.421875 -13.753906 10.75 -13.582031 11.40625 -13.46875 C 12.070312 -13.351562 13.050781 -13.253906 14.34375 -13.171875 C 15.644531 -13.097656 17.023438 -12.972656 18.484375 -12.796875 C 19.953125 -12.628906 21.320312 -12.328125 22.59375 -11.890625 C 23.863281 -11.460938 24.859375 -10.828125 25.578125 -9.984375 C 26.140625 -9.335938 26.421875 -8.515625 26.421875 -7.515625 C 26.421875 -7.234375 26.394531 -6.9375 26.34375 -6.625 C 26.039062 -5.238281 25.4375 -4.015625 24.53125 -2.953125 C 23.632812 -1.890625 22.320312 -1.054688 20.59375 -0.453125 C 18.863281 0.148438 16.59375 0.453125 13.78125 0.453125 Z M 13.78125 0.453125 "/></g></g></g><g fill="#ffffff" fill-opacity="1"><g transform="translate(54.404412, 29.605754)"><g/></g></g><g fill="#ffffff" fill-opacity="1"><g transform="translate(61.785683, 29.605754)"><g/></g></g><g fill="#ffffff" fill-opacity="1"><g transform="translate(69.166954, 29.605754)"><g/></g></g><g fill="#ffffff" fill-opacity="1"><g transform="translate(76.548225, 29.605754)"><g/></g></g><g fill="#ffffff" fill-opacity="1"><g transform="translate(83.938236, 29.605754)"><g><path d="M 20.03125 0 L 11.90625 0 L 0.21875 -20.84375 L 9.078125 -20.84375 L 15.96875 -5.9375 L 22.84375 -20.84375 L 31.71875 -20.84375 Z M 20.03125 0 "/></g></g></g><g fill="#ffffff" fill-opacity="1"><g transform="translate(115.86078, 29.605754)"><g><path d="M 27.4375 0 L 2.328125 0 L 2.328125 -20.859375 L 26.296875 -20.859375 L 26.296875 -15.703125 L 11.078125 -15.703125 L 11.078125 -12.421875 L 23.9375 -12.421875 L 23.9375 -8.421875 L 11.078125 -8.421875 L 11.078125 -5.15625 L 27.4375 -5.15625 Z M 27.4375 0 "/></g></g></g><g fill="#ffffff" fill-opacity="1"><g transform="translate(86.946593, 8.669536)"><g><path d="M -20.03125 0 L -11.90625 0 L -0.21875 20.84375 L -9.078125 20.84375 L -15.96875 5.9375 L -22.84375 20.84375 L -31.71875 20.84375 Z M -20.03125 0 "/></g></g></g><g fill="#ff6d00" fill-opacity="1"><g transform="translate(26.702947, 45.386211)"><g><path d="M 7.890625 0 L 4.5 0 L 4.5 -3.828125 L 0.078125 -8.09375 L 3.84375 -8.09375 L 6.203125 -5.671875 L 8.546875 -8.09375 L 12.296875 -8.09375 L 7.890625 -3.828125 Z M 7.890625 0 "/></g></g></g><g fill="#ff6d00" fill-opacity="1"><g transform="translate(39.080015, 45.386211)"><g><path d="M 6.125 0.171875 C 4.125 0.171875 2.648438 -0.238281 1.703125 -1.0625 C 0.867188 -1.789062 0.453125 -2.785156 0.453125 -4.046875 C 0.453125 -5.296875 0.867188 -6.285156 1.703125 -7.015625 C 2.648438 -7.835938 4.125 -8.25 6.125 -8.25 C 8.113281 -8.25 9.582031 -7.835938 10.53125 -7.015625 C 11.363281 -6.285156 11.78125 -5.296875 11.78125 -4.046875 C 11.78125 -2.785156 11.363281 -1.789062 10.53125 -1.0625 C 9.582031 -0.238281 8.113281 0.171875 6.125 0.171875 Z M 6.125 -2 C 6.9375 -2 7.535156 -2.234375 7.921875 -2.703125 C 8.234375 -3.078125 8.390625 -3.523438 8.390625 -4.046875 C 8.390625 -4.554688 8.234375 -5 7.921875 -5.375 C 7.535156 -5.851562 6.9375 -6.09375 6.125 -6.09375 C 5.300781 -6.09375 4.695312 -5.851562 4.3125 -5.375 C 4 -5 3.84375 -4.554688 3.84375 -4.046875 C 3.84375 -3.523438 4 -3.078125 4.3125 -2.703125 C 4.695312 -2.234375 5.300781 -2 6.125 -2 Z M 6.125 -2 "/></g></g></g><g fill="#ff6d00" fill-opacity="1"><g transform="translate(51.304975, 45.386211)"><g><path d="M 5.6875 0.171875 C 3.71875 0.171875 2.328125 -0.234375 1.515625 -1.046875 C 0.835938 -1.742188 0.5 -2.738281 0.5 -4.03125 L 0.5 -8.078125 L 3.90625 -8.078125 L 3.90625 -4.03125 C 3.90625 -3.46875 4 -3.023438 4.1875 -2.703125 C 4.457031 -2.234375 4.957031 -2 5.6875 -2 C 6.414062 -2 6.914062 -2.234375 7.1875 -2.703125 C 7.382812 -3.035156 7.484375 -3.476562 7.484375 -4.03125 L 7.484375 -8.078125 L 10.875 -8.078125 L 10.875 -3.984375 C 10.875 -2.722656 10.535156 -1.742188 9.859375 -1.046875 C 9.054688 -0.234375 7.664062 0.171875 5.6875 0.171875 Z M 5.6875 0.171875 "/></g></g></g><g fill="#ff6d00" fill-opacity="1"><g transform="translate(62.679258, 45.386211)"><g><path d="M 11.953125 0 L 8.734375 0 C 8.585938 -0.195312 8.484375 -0.457031 8.421875 -0.78125 C 8.367188 -1.019531 8.289062 -1.253906 8.1875 -1.484375 C 8.082031 -1.722656 7.898438 -1.921875 7.640625 -2.078125 C 7.390625 -2.234375 7.007812 -2.316406 6.5 -2.328125 L 4.296875 -2.328125 L 4.296875 0 L 0.90625 0 L 0.90625 -8.09375 L 6.421875 -8.09375 C 7.742188 -8.09375 8.804688 -7.992188 9.609375 -7.796875 C 10.421875 -7.597656 11.015625 -7.285156 11.390625 -6.859375 C 11.765625 -6.441406 11.953125 -5.890625 11.953125 -5.203125 C 11.953125 -4.640625 11.820312 -4.164062 11.5625 -3.78125 C 11.300781 -3.394531 10.894531 -3.085938 10.34375 -2.859375 C 10.875 -2.640625 11.21875 -2.375 11.375 -2.0625 C 11.539062 -1.75 11.644531 -1.40625 11.6875 -1.03125 C 11.71875 -0.707031 11.804688 -0.363281 11.953125 0 Z M 4.296875 -4.328125 L 6.234375 -4.328125 C 6.773438 -4.328125 7.203125 -4.351562 7.515625 -4.40625 C 7.828125 -4.457031 8.054688 -4.523438 8.203125 -4.609375 C 8.347656 -4.691406 8.441406 -4.785156 8.484375 -4.890625 C 8.523438 -4.992188 8.546875 -5.097656 8.546875 -5.203125 C 8.546875 -5.316406 8.523438 -5.425781 8.484375 -5.53125 C 8.441406 -5.632812 8.347656 -5.726562 8.203125 -5.8125 C 8.054688 -5.894531 7.828125 -5.960938 7.515625 -6.015625 C 7.203125 -6.066406 6.773438 -6.09375 6.234375 -6.09375 L 4.296875 -6.09375 Z M 4.296875 -4.328125 "/></g></g></g><g fill="#ff6d00" fill-opacity="1"><g transform="translate(75.067593, 45.386211)"><g/></g></g><g fill="#ff6d00" fill-opacity="1"><g transform="translate(77.929473, 45.386211)"><g><path d="M 16.28125 0 L 12.890625 0 L 12.890625 -5.15625 L 9.859375 0 L 7.328125 0 L 4.296875 -5.15625 L 4.296875 0 L 0.90625 0 L 0.90625 -8.09375 L 4.9375 -8.09375 L 8.59375 -2.3125 L 12.25 -8.09375 L 16.28125 -8.09375 Z M 16.28125 0 "/></g></g></g><g fill="#ff6d00" fill-opacity="1"><g transform="translate(95.100753, 45.386211)"><g><path d="M 6.125 0.171875 C 4.125 0.171875 2.648438 -0.238281 1.703125 -1.0625 C 0.867188 -1.789062 0.453125 -2.785156 0.453125 -4.046875 C 0.453125 -5.296875 0.867188 -6.285156 1.703125 -7.015625 C 2.648438 -7.835938 4.125 -8.25 6.125 -8.25 C 8.113281 -8.25 9.582031 -7.835938 10.53125 -7.015625 C 11.363281 -6.285156 11.78125 -5.296875 11.78125 -4.046875 C 11.78125 -2.785156 11.363281 -1.789062 10.53125 -1.0625 C 9.582031 -0.238281 8.113281 0.171875 6.125 0.171875 Z M 6.125 -2 C 6.9375 -2 7.535156 -2.234375 7.921875 -2.703125 C 8.234375 -3.078125 8.390625 -3.523438 8.390625 -4.046875 C 8.390625 -4.554688 8.234375 -5 7.921875 -5.375 C 7.535156 -5.851562 6.9375 -6.09375 6.125 -6.09375 C 5.300781 -6.09375 4.695312 -5.851562 4.3125 -5.375 C 4 -5 3.84375 -4.554688 3.84375 -4.046875 C 3.84375 -3.523438 4 -3.078125 4.3125 -2.703125 C 4.695312 -2.234375 5.300781 -2 6.125 -2 Z M 6.125 -2 "/></g></g></g><g fill="#ff6d00" fill-opacity="1"><g transform="translate(107.325709, 45.386211)"><g><path d="M 12.90625 0 L 8.875 0 L 4.296875 -5.46875 L 4.296875 0 L 0.90625 0 L 0.90625 -8.09375 L 4.9375 -8.09375 L 9.515625 -2.640625 L 9.515625 -8.09375 L 12.90625 -8.09375 Z M 12.90625 0 "/></g></g></g><g fill="#ff6d00" fill-opacity="1"><g transform="translate(121.122454, 45.386211)"><g><path d="M 10.640625 0 L 0.90625 0 L 0.90625 -8.09375 L 10.203125 -8.09375 L 10.203125 -6.09375 L 4.296875 -6.09375 L 4.296875 -4.828125 L 9.28125 -4.828125 L 9.28125 -3.265625 L 4.296875 -3.265625 L 4.296875 -2 L 10.640625 -2 Z M 10.640625 0 "/></g></g></g><g fill="#ff6d00" fill-opacity="1"><g transform="translate(132.209422, 45.386211)"><g><path d="M 7.890625 0 L 4.5 0 L 4.5 -3.828125 L 0.078125 -8.09375 L 3.84375 -8.09375 L 6.203125 -5.671875 L 8.546875 -8.09375 L 12.296875 -8.09375 L 7.890625 -3.828125 Z M 7.890625 0 "/></g></g></g></svg>