<svg width="200" height="200" xmlns="http://www.w3.org/2000/svg">
  <!-- Fundo vermelho circular -->
  <circle cx="100" cy="100" r="100" fill="#e03c31"/>
  
  <!-- Parte branca -->
  <rect x="0" y="100" width="200" height="100" fill="#ffffff"/>
  
  <!-- Lua crescente -->
  <circle cx="60" cy="60" r="30" fill="#ffffff"/>
  <circle cx="70" cy="60" r="30" fill="#e03c31"/>
  
  <!-- Estrelas brancas -->
  <g fill="#ffffff">
    <!-- Estrela 1 -->
    <polygon points="80,35 85,50 100,50 87,60 90,75 80,65 70,75 73,60 60,50 75,50"/>
    <!-- Estrela 2 -->
    <polygon points="90,45 95,60 110,60 97,70 100,85 90,75 80,85 83,70 70,60 85,60"/>
    <!-- Estrela 3 -->
    <polygon points="80,55 85,70 100,70 87,80 90,95 80,85 70,95 73,80 60,70 75,70"/>
    <!-- Estrela 4 -->
    <polygon points="90,65 95,80 110,80 97,90 100,105 90,95 80,105 83,90 70,80 85,80"/>
  </g>
</svg>
